{"glyphs":{"0":{"ha":394,"x_min":57,"x_max":553,"o":"m 213 869 q 225 899 215 879 q 244 933 235 919 q 408 1022 306 1022 q 516 983 479 1022 q 551 869 553 944 l 396 138 q 316 29 369 69 q 199 -11 263 -11 q 94 29 132 -11 q 57 139 57 69 l 213 869 m 192 169 q 202 138 192 150 q 231 125 213 125 q 263 138 249 125 q 281 169 276 150 l 425 846 q 418 880 429 865 q 389 894 407 894 q 356 880 371 894 q 336 846 340 865 l 192 169 z "},"1":{"ha":311,"x_min":136,"x_max":493,"o":"m 174 721 l 210 890 l 375 1011 l 489 1011 q 493 1003 493 1011 l 493 997 l 285 17 q 271 0 282 0 l 142 0 q 136 11 136 0 q 138 24 136 21 l 307 818 l 174 721 z "},"2":{"ha":403,"x_min":28,"x_max":558,"o":"m 396 129 l 371 11 q 354 0 368 0 l 28 0 l 57 139 q 113 284 69 201 q 215 443 156 367 l 313 567 q 352 619 343 606 q 364 636 361 632 q 376 660 372 649 q 385 693 381 671 l 417 846 q 410 874 419 861 q 386 886 401 886 q 355 865 369 886 q 332 806 340 843 l 304 676 l 171 676 l 210 857 q 226 901 214 876 q 256 947 239 926 q 324 1003 283 983 q 413 1022 365 1022 q 521 985 483 1022 q 558 878 558 949 q 557 857 558 861 l 517 668 q 456 556 500 622 q 350 413 413 490 q 251 268 290 339 q 196 135 211 197 l 194 129 l 396 129 z "},"3":{"ha":394,"x_min":58,"x_max":546,"o":"m 190 161 q 189 153 189 157 q 221 121 189 121 q 253 134 240 121 q 272 168 267 147 l 324 410 q 325 422 325 417 q 301 454 325 450 l 269 454 l 301 604 l 333 604 q 356 620 344 604 q 372 656 368 636 l 411 838 l 411 839 q 413 851 413 842 q 385 886 413 886 q 353 873 367 886 q 335 838 339 860 l 300 676 l 171 676 l 207 846 q 279 974 224 925 q 410 1022 335 1022 q 511 986 476 1022 q 546 883 546 950 l 544 857 l 501 660 q 468 588 492 619 q 408 539 444 556 q 442 515 428 539 q 461 450 457 492 l 404 181 q 385 130 400 161 q 356 78 371 99 q 196 -12 293 -12 q 94 24 129 -12 q 58 129 58 61 q 59 147 58 138 q 61 161 60 157 l 99 333 l 228 333 l 190 161 z "},"4":{"ha":447,"x_min":69,"x_max":507,"o":"m 276 189 l 79 189 q 69 201 69 193 l 101 350 l 350 1011 l 475 1011 l 229 322 l 306 322 l 375 649 l 507 649 l 438 322 l 486 322 l 457 185 l 408 185 l 372 17 q 358 0 368 0 l 253 0 q 239 13 239 0 l 276 189 z "},"5":{"ha":399,"x_min":58,"x_max":572,"o":"m 135 504 l 242 1011 l 572 1011 l 546 888 l 349 888 l 297 646 q 341 677 313 665 q 404 689 369 689 q 496 606 496 689 q 492 572 496 594 l 401 150 q 385 109 397 132 q 358 68 374 86 q 197 -7 299 -7 q 58 128 58 -7 q 61 161 58 147 l 100 343 l 229 343 l 192 169 q 229 133 192 133 q 257 144 244 133 q 274 174 269 156 l 350 532 l 350 540 q 318 572 350 572 q 290 563 303 572 q 275 540 278 554 l 268 504 l 135 504 z "},"6":{"ha":403,"x_min":60,"x_max":563,"o":"m 349 506 q 341 528 351 518 q 315 538 331 538 q 288 529 300 538 q 274 510 276 521 l 200 164 l 200 161 q 229 131 201 131 q 258 141 244 131 q 276 167 272 151 l 349 506 m 294 614 q 407 671 339 671 q 472 645 447 671 q 496 578 496 619 q 495 569 496 574 q 493 558 494 565 l 403 135 q 388 101 400 122 q 361 63 376 81 q 199 -10 301 -10 q 95 24 131 -10 q 60 124 60 58 q 61 151 60 139 q 67 183 63 164 l 210 860 q 227 902 214 876 q 257 947 240 928 q 415 1021 318 1021 q 524 986 486 1021 q 563 889 563 951 q 561 881 563 885 l 532 739 l 403 739 l 424 840 q 416 868 426 856 q 388 881 406 881 q 360 869 372 881 q 343 840 347 858 l 294 614 z "},"7":{"ha":385,"x_min":85,"x_max":572,"o":"m 213 874 l 242 1011 l 572 1011 l 543 869 l 229 0 l 85 0 l 394 874 l 213 874 z "},"8":{"ha":396,"x_min":51,"x_max":553,"o":"m 331 443 q 297 472 328 472 q 249 436 263 472 l 192 167 l 192 161 q 225 125 192 125 q 255 137 240 125 q 272 165 269 149 l 331 443 m 419 858 q 386 892 417 892 q 358 881 371 892 q 338 856 344 871 l 293 646 l 293 638 q 326 606 293 606 q 357 617 343 606 q 374 646 371 628 l 419 858 m 499 621 q 469 574 492 597 q 413 536 446 551 q 460 464 464 517 l 385 106 q 313 21 365 53 q 192 -11 261 -11 q 89 20 126 -11 q 51 104 51 51 l 51 114 l 124 456 q 203 536 144 513 q 161 613 164 540 l 218 879 q 294 985 243 946 q 413 1024 346 1024 q 553 883 553 1024 l 553 879 l 499 621 z "},"9":{"ha":404,"x_min":56,"x_max":554,"o":"m 218 878 q 294 983 243 944 q 411 1022 346 1022 q 518 985 485 1022 q 554 865 551 947 l 397 128 q 317 26 374 65 q 194 -12 261 -12 q 91 22 126 -12 q 56 121 56 56 l 56 132 l 81 253 l 210 253 l 192 164 l 192 161 q 201 138 189 149 q 228 128 213 128 q 257 139 244 128 q 272 168 269 150 l 324 406 q 279 365 310 381 q 213 350 249 350 q 129 440 129 350 l 131 467 l 218 878 m 419 861 q 410 882 419 874 q 385 890 400 890 q 338 854 351 890 l 265 511 l 265 503 q 299 471 265 471 q 329 482 315 471 q 346 511 343 493 l 419 861 z "},"\r":{"ha":0,"x_min":0,"x_max":0,"o":""}," ":{"ha":278,"x_min":0,"x_max":0,"o":""},"!":{"ha":229,"x_min":44,"x_max":417,"o":"m 146 151 q 194 132 175 151 q 214 83 214 113 q 205 47 214 64 q 181 16 196 29 q 148 -6 167 3 q 108 -14 129 -14 q 63 4 81 -14 q 44 50 44 22 q 75 121 44 90 q 146 151 106 151 m 115 267 l 238 992 q 254 1011 242 1011 l 399 1011 q 414 999 417 1011 q 413 996 414 997 l 221 267 l 115 267 z "},"\"":{"ha":340,"x_min":246,"x_max":529,"o":"m 440 1117 q 453 1129 443 1129 l 522 1129 q 529 1119 529 1129 l 529 1118 l 529 1117 q 500 1008 511 1050 q 482 941 489 967 q 472 902 475 915 q 465 881 468 889 q 456 869 461 869 l 411 869 q 401 881 401 869 l 440 1117 m 285 1117 q 297 1129 288 1129 l 367 1129 q 374 1119 374 1129 l 374 1118 l 374 1117 q 344 1008 356 1050 q 326 941 333 967 q 316 902 319 915 q 310 881 313 889 q 300 869 306 869 l 256 869 q 246 881 246 869 l 285 1117 z "},"#":{"ha":643,"x_min":56,"x_max":810,"o":"m 381 510 l 349 424 l 458 424 l 490 510 l 381 510 m 553 288 l 453 0 l 308 0 l 410 288 l 300 288 l 200 0 l 56 0 l 156 288 l 94 288 l 124 424 l 204 424 l 236 510 l 143 510 l 171 646 l 283 646 l 413 1011 l 557 1011 l 426 646 l 538 646 l 665 1011 l 810 1011 l 679 646 l 754 646 l 726 510 l 632 510 l 601 424 l 707 424 l 678 288 l 553 288 z "},"$":{"ha":435,"x_min":60,"x_max":582,"o":"m 490 1014 q 558 958 533 997 q 582 869 582 919 q 582 858 582 864 q 581 851 582 853 l 547 694 q 524 675 544 675 l 418 675 q 406 680 411 675 q 403 692 401 685 l 403 694 l 429 819 q 432 835 432 826 q 396 868 432 868 q 346 831 364 868 q 339 815 343 825 q 332 795 335 806 q 327 776 329 785 q 325 764 325 767 l 325 754 q 324 751 324 753 q 323 749 324 750 q 322 744 322 747 q 320 733 321 742 q 319 717 319 724 q 335 648 319 679 q 386 578 350 617 q 460 483 436 525 q 483 403 483 442 q 478 360 483 381 l 435 153 q 414 106 431 131 q 374 59 397 82 q 325 19 351 36 q 272 -7 299 1 l 249 -121 q 225 -140 246 -140 l 136 -140 q 121 -126 121 -140 l 121 -121 l 144 -8 q 80 43 100 10 q 60 131 60 76 q 62 167 60 147 q 67 204 64 188 l 99 356 q 111 372 103 372 l 238 372 q 246 363 246 372 q 244 356 246 358 l 206 175 l 204 154 q 238 125 204 125 q 292 178 281 125 l 322 324 q 324 334 324 329 q 325 346 325 339 q 321 397 325 375 q 305 440 317 419 q 274 482 293 461 q 225 528 254 503 q 183 582 196 553 q 169 651 169 611 q 172 686 169 667 q 176 722 174 706 l 203 849 q 224 897 207 871 q 263 945 240 922 q 312 987 286 968 q 361 1013 338 1006 l 383 1117 q 393 1132 386 1126 q 408 1138 400 1138 l 497 1138 q 513 1124 513 1138 q 511 1117 513 1119 l 490 1014 z "},"%":{"ha":911,"x_min":101,"x_max":1021,"o":"m 764 643 q 773 665 765 650 q 788 690 781 679 q 913 757 835 757 q 993 728 965 757 q 1019 643 1021 699 l 903 93 q 843 13 883 43 q 754 -18 803 -18 q 676 13 706 -18 q 647 94 647 43 l 764 643 m 749 117 q 778 83 749 83 q 802 92 792 83 q 815 117 813 101 l 924 625 l 924 626 q 925 633 925 628 q 900 661 925 661 q 874 651 885 661 q 857 625 863 640 l 749 117 m 140 -200 q 142 -197 142 -199 q 435 368 289 86 q 729 939 581 650 q 742 967 736 954 q 756 992 749 981 q 775 1011 764 1011 l 860 1011 q 868 1001 868 1011 q 863 992 867 999 l 244 -208 q 221 -225 235 -225 l 144 -225 q 138 -210 138 -225 l 139 -207 q 140 -203 139 -204 l 140 -200 m 218 900 q 228 922 219 907 q 243 947 236 936 q 368 1014 290 1014 q 474 900 476 1014 l 357 350 q 297 269 338 300 q 208 239 257 239 q 131 269 160 239 q 101 351 101 300 l 218 900 m 204 374 q 233 340 204 340 q 258 349 247 340 q 271 374 268 358 l 378 882 l 378 883 q 379 890 379 885 q 354 918 379 918 q 328 908 339 918 q 311 882 317 897 l 204 374 z "},"&":{"ha":564,"x_min":71,"x_max":635,"o":"m 346 460 q 286 448 303 460 q 263 401 269 436 l 214 175 l 213 157 q 246 122 213 122 q 303 171 292 122 l 364 460 l 621 460 q 635 451 635 460 l 635 450 l 614 349 q 594 339 610 339 l 476 339 l 438 153 q 408 89 431 119 q 356 35 386 58 q 288 -1 325 13 q 211 -15 250 -15 q 152 -3 176 -15 q 104 39 128 10 q 71 121 71 82 q 72 135 71 131 l 136 433 q 169 499 143 469 q 236 544 196 529 q 199 568 215 547 q 183 615 183 589 q 185 629 183 625 l 235 867 q 304 971 244 918 q 369 1013 336 1000 q 444 1025 401 1025 q 557 990 513 1025 q 601 900 601 954 q 601 888 601 893 q 599 875 600 882 l 563 699 q 550 682 558 682 l 422 682 q 414 692 411 682 q 415 699 414 694 l 446 838 l 447 854 q 414 889 447 889 q 358 833 371 889 l 319 653 q 318 640 318 649 q 331 615 318 624 q 376 604 344 607 l 346 460 z "},"'":{"ha":186,"x_min":246,"x_max":374,"o":"m 285 1117 q 297 1129 288 1129 l 367 1129 q 374 1119 374 1129 l 374 1118 l 374 1117 q 344 1008 356 1050 q 326 941 333 967 q 316 902 319 915 q 310 881 313 889 q 300 869 306 869 l 256 869 q 246 881 246 869 l 285 1117 z "},"(":{"ha":300,"x_min":13,"x_max":478,"o":"m 199 -265 l 182 -267 l 178 -267 q 115 -261 138 -267 q 72 -240 92 -256 q 28 -184 44 -219 q 13 -106 13 -149 q 17 -69 13 -86 l 210 838 q 239 909 218 876 q 290 965 260 942 q 358 1002 321 989 q 436 1015 394 1015 q 457 1015 449 1015 q 478 1011 465 1014 l 436 815 l 438 835 q 400 874 438 874 q 349 819 358 874 l 158 -72 q 156 -82 156 -79 q 156 -89 156 -85 q 193 -124 156 -124 q 228 -111 217 -124 q 249 -67 240 -99 l 207 -264 l 199 -265 z "},")":{"ha":300,"x_min":-22,"x_max":447,"o":"m 18 -67 q 16 -78 17 -74 q 15 -87 15 -83 q 50 -124 15 -124 q 106 -72 96 -124 l 296 819 q 299 831 299 828 q 299 839 299 833 q 267 874 299 874 q 206 815 219 874 l 247 1011 q 271 1015 263 1014 q 290 1015 279 1015 q 404 977 361 1015 q 447 876 447 939 q 443 838 447 856 l 250 -69 q 207 -161 240 -115 q 132 -235 174 -207 q 76 -260 104 -253 q 6 -267 47 -267 l 1 -267 l -14 -265 l -22 -264 l 18 -67 z "},"*":{"ha":546,"x_min":196,"x_max":682,"o":"m 521 746 l 514 729 l 581 603 l 488 544 l 422 675 l 410 675 l 286 546 l 218 604 l 342 733 l 338 746 l 196 796 l 247 889 l 388 840 l 400 849 l 435 1008 l 535 1008 l 500 849 l 510 840 l 672 889 l 682 796 l 521 746 z "},"+":{"ha":504,"x_min":106,"x_max":567,"o":"m 122 351 q 106 365 106 351 l 106 371 l 125 460 q 150 479 129 479 l 286 479 l 315 617 q 339 638 319 638 l 428 638 q 444 622 444 638 l 444 621 q 444 619 444 619 q 443 617 443 618 l 414 479 l 550 479 q 567 465 567 479 q 565 460 567 461 l 546 371 q 522 351 543 351 l 386 351 l 358 217 q 335 197 356 197 l 246 197 q 231 211 231 197 l 231 217 l 258 351 l 122 351 z "},",":{"ha":258,"x_min":-68,"x_max":239,"o":"m 99 -18 q 107 -3 104 -7 q 118 0 110 0 l 232 0 q 239 -8 239 0 l 236 -15 l 235 -17 l 235 -18 l 38 -393 q 15 -410 29 -410 l -60 -410 q -68 -401 -68 -410 q -67 -394 -68 -397 l 99 -18 z "},"-":{"ha":499,"x_min":93,"x_max":553,"o":"m 536 417 q 553 403 553 417 q 551 397 553 400 l 533 308 q 510 289 531 289 l 110 289 q 93 303 93 289 l 93 308 l 111 397 q 136 417 115 417 l 536 417 z "},".":{"ha":219,"x_min":40,"x_max":210,"o":"m 142 151 q 190 132 171 151 q 210 83 210 113 q 201 47 210 64 q 177 16 192 29 q 144 -6 163 3 q 104 -14 125 -14 q 58 4 76 -14 q 40 50 40 22 q 71 121 40 90 q 142 151 101 151 z "},"/":{"ha":535,"x_min":-81,"x_max":744,"o":"m 601 932 l 622 971 l 632 992 q 651 1011 640 1011 l 736 1011 q 744 1001 744 1011 l 739 992 l 25 -393 q 3 -410 17 -410 l -72 -410 q -81 -400 -81 -410 q -79 -394 -81 -396 l -75 -382 l 601 932 z "},":":{"ha":219,"x_min":40,"x_max":301,"o":"m 233 583 q 282 564 263 583 q 301 515 301 544 q 292 478 301 496 q 269 448 283 461 q 235 426 254 435 q 196 418 217 418 q 150 436 168 418 q 132 482 132 454 q 163 553 132 522 q 233 583 193 583 m 142 151 q 190 132 171 151 q 210 83 210 113 q 201 47 210 64 q 177 16 192 29 q 144 -6 163 3 q 104 -14 125 -14 q 58 4 76 -14 q 40 50 40 22 q 71 121 40 90 q 142 151 101 151 z "},";":{"ha":276,"x_min":-68,"x_max":358,"o":"m 99 -18 q 107 -3 104 -7 q 118 0 110 0 l 232 0 l 233 0 l 232 0 q 228 -1 231 -1 q 214 -10 214 -7 q 211 -18 211 -18 l 38 -393 q 15 -410 28 -410 l -60 -410 q -68 -401 -68 -410 q -67 -394 -68 -397 l 99 -18 m 290 583 q 339 565 319 583 q 358 515 358 546 q 349 478 358 496 q 326 448 340 461 q 292 426 311 435 q 253 418 274 418 q 207 435 225 418 q 189 481 189 453 q 197 519 189 501 q 219 552 206 538 q 252 575 233 567 q 290 583 271 583 z "},"<":{"ha":501,"x_min":97,"x_max":603,"o":"m 97 336 l 133 506 l 603 624 l 575 494 l 282 421 l 543 346 l 517 217 l 97 336 z "},"=":{"ha":506,"x_min":81,"x_max":592,"o":"m 575 596 q 592 582 592 596 q 590 576 592 578 l 571 488 q 547 468 568 468 l 147 468 q 131 482 131 468 l 131 488 l 150 576 q 175 596 154 596 l 575 596 m 525 361 q 542 347 542 361 q 540 342 542 343 l 521 253 q 497 233 518 233 l 97 233 q 81 247 81 233 l 81 253 l 100 342 q 125 361 104 361 l 525 361 z "},">":{"ha":501,"x_min":72,"x_max":578,"o":"m 99 346 l 393 421 l 131 494 l 158 624 l 578 506 l 542 336 l 72 217 l 99 346 z "},"?":{"ha":390,"x_min":107,"x_max":553,"o":"m 208 151 q 257 132 238 151 q 276 83 276 113 q 267 47 276 64 q 244 16 258 29 q 210 -6 229 3 q 171 -14 192 -14 q 125 4 143 -14 q 107 50 107 22 q 138 121 107 90 q 208 151 168 151 m 182 268 q 169 278 169 271 l 169 282 l 169 285 q 218 428 185 357 q 296 557 251 499 q 353 642 331 601 q 383 710 376 683 l 415 858 q 417 864 417 861 q 381 892 417 892 q 353 881 365 892 q 338 854 342 871 l 304 693 l 175 693 l 215 888 q 291 984 239 949 q 410 1019 343 1019 q 515 990 476 1019 q 553 907 553 960 q 553 898 553 903 q 551 892 553 893 l 517 729 q 499 663 508 692 q 477 609 489 635 q 449 559 465 583 q 413 507 433 535 q 356 427 372 454 q 336 388 339 400 l 306 278 q 286 268 300 268 l 251 268 l 182 268 z "},"@":{"ha":872,"x_min":100,"x_max":942,"o":"m 740 742 q 747 735 747 742 q 746 725 747 729 l 614 104 q 678 153 646 122 q 738 222 710 183 q 788 308 765 261 q 825 403 810 354 q 847 509 839 449 q 856 622 856 569 q 797 842 856 763 q 638 922 739 922 q 510 890 572 922 q 394 797 449 857 q 296 649 340 736 q 221 456 251 563 q 181 199 181 311 q 197 58 181 121 q 243 -49 213 -4 q 316 -117 274 -93 q 411 -142 358 -142 q 551 -103 483 -142 q 564 -96 560 -97 q 572 -92 568 -94 l 554 -182 q 542 -186 547 -185 q 517 -199 538 -187 q 390 -228 458 -228 q 269 -201 324 -228 q 178 -124 215 -174 q 120 -1 140 -74 q 100 161 100 71 q 106 261 100 210 q 124 371 113 313 q 207 635 154 517 q 330 835 260 753 q 483 963 400 918 q 657 1008 565 1008 q 868 919 794 1008 q 942 663 942 831 q 938 577 942 622 q 925 487 933 532 q 906 399 917 442 q 881 321 894 357 q 763 122 836 203 q 593 0 689 40 l 497 0 l 494 54 q 381 -14 460 -14 q 310 10 336 -14 q 283 78 283 35 q 284 95 283 88 q 288 114 285 103 l 403 654 q 418 683 406 665 q 446 717 431 701 q 525 750 481 750 q 568 740 551 750 q 601 701 585 729 q 610 675 610 686 l 640 742 l 740 742 m 592 579 l 593 585 q 584 606 596 594 q 560 617 572 617 q 531 606 544 617 q 514 578 518 594 l 421 143 q 419 135 419 140 q 419 128 419 131 q 450 92 419 92 q 500 144 489 92 l 592 579 z "},"A":{"ha":508,"x_min":29,"x_max":529,"o":"m 344 278 q 353 290 350 278 q 355 310 354 301 q 356 327 356 318 q 358 351 357 336 q 363 389 360 365 l 393 700 l 261 290 q 261 279 261 281 q 263 278 261 278 l 344 278 m 214 149 l 165 15 q 147 0 163 0 l 35 0 q 29 11 29 0 l 379 982 q 406 1011 386 1011 l 518 1011 q 527 1006 525 1011 q 529 986 529 1001 l 529 983 q 528 951 529 975 q 526 883 528 928 q 520 767 524 838 q 511 594 517 697 q 499 353 506 492 q 483 32 493 214 q 485 24 485 29 q 483 15 485 18 q 469 0 481 0 l 349 0 q 338 13 339 0 l 343 149 l 214 149 z "},"B":{"ha":411,"x_min":31,"x_max":571,"o":"m 185 132 l 185 129 q 194 121 185 121 l 235 121 q 267 135 253 121 q 286 172 282 150 l 336 410 q 338 421 338 414 q 318 454 338 444 l 253 454 l 185 132 m 279 579 l 344 579 q 383 628 376 596 l 426 833 l 426 835 l 426 836 l 428 842 l 428 846 q 396 882 428 882 l 356 882 q 342 869 343 882 l 279 579 m 517 632 q 484 566 510 596 q 421 519 458 536 q 471 444 471 496 l 469 425 l 404 121 q 350 33 393 67 q 247 0 307 0 l 49 0 q 31 17 31 0 l 31 18 l 31 19 l 239 994 q 253 1011 243 1011 l 472 1011 q 545 984 519 1011 q 571 907 571 957 l 571 889 l 569 883 l 569 882 l 517 632 z "},"C":{"ha":417,"x_min":64,"x_max":567,"o":"m 456 375 q 464 360 464 372 l 464 356 l 424 165 q 408 125 421 150 q 383 83 396 100 q 203 -11 317 -11 q 64 129 64 -11 q 74 210 64 169 l 206 831 q 234 909 214 874 q 283 970 254 944 q 346 1010 311 996 q 418 1024 381 1024 q 529 985 492 1024 q 567 871 567 946 q 566 844 567 858 q 563 819 565 829 l 536 693 q 519 678 533 678 l 404 678 q 400 682 400 678 q 401 690 400 688 l 429 818 l 429 826 q 390 875 429 875 q 354 858 372 875 q 332 818 336 842 l 194 174 q 193 164 193 171 q 233 125 193 125 q 270 138 254 125 q 292 174 286 151 l 331 356 q 347 375 333 375 l 456 375 z "},"D":{"ha":411,"x_min":31,"x_max":569,"o":"m 425 832 l 425 833 l 425 835 l 426 840 l 426 844 q 394 881 426 881 l 350 881 q 342 872 343 881 l 185 132 l 185 128 q 193 119 185 119 l 233 119 q 265 134 251 119 q 285 172 279 149 l 425 832 m 424 179 q 360 47 406 94 q 253 0 315 0 l 47 0 q 31 17 31 0 l 31 18 l 31 19 l 238 990 q 254 1011 242 1011 l 443 1011 q 569 864 567 1011 l 424 179 z "},"E":{"ha":338,"x_min":31,"x_max":524,"o":"m 369 890 q 354 878 357 890 l 290 579 l 432 579 l 403 443 l 261 443 l 197 140 l 197 138 q 207 129 197 129 l 336 129 l 310 0 l 47 0 q 31 17 31 0 l 31 19 l 239 994 q 251 1011 243 1011 l 524 1011 l 499 890 l 369 890 z "},"F":{"ha":338,"x_min":31,"x_max":524,"o":"m 499 890 l 369 890 q 354 878 357 890 l 290 579 l 432 579 l 403 443 l 261 443 l 171 19 l 171 18 q 149 0 168 0 l 47 0 q 31 17 31 0 l 31 19 l 239 994 q 251 1011 243 1011 l 524 1011 l 499 890 z "},"G":{"ha":411,"x_min":64,"x_max":569,"o":"m 406 682 q 397 694 397 686 l 397 701 l 426 839 l 426 846 q 418 873 425 865 q 392 881 411 881 q 357 868 372 881 q 338 835 342 856 l 197 172 q 196 163 196 167 q 196 157 196 160 q 232 117 196 117 q 267 131 251 117 q 288 168 283 146 l 343 428 l 299 428 l 328 568 l 497 568 q 503 554 503 565 q 501 544 503 547 l 421 164 q 393 94 413 126 q 345 38 374 61 q 281 1 317 14 q 208 -12 246 -12 q 101 27 138 -12 q 64 142 64 67 q 65 169 64 154 q 68 193 65 185 l 211 868 q 297 983 240 940 q 419 1025 353 1025 q 569 864 567 1025 l 533 694 q 522 682 531 682 l 406 682 z "},"H":{"ha":410,"x_min":31,"x_max":594,"o":"m 346 442 l 250 442 l 157 0 l 47 0 q 31 17 31 0 l 31 19 l 238 990 q 258 1011 242 1011 l 371 1011 l 281 582 l 376 582 l 467 1011 l 581 1011 q 590 1007 586 1011 q 593 997 594 1003 q 592 990 593 993 l 385 19 q 363 0 381 0 l 253 0 l 346 442 z "},"I":{"ha":196,"x_min":31,"x_max":381,"o":"m 171 19 q 149 0 167 0 l 47 0 q 31 17 31 0 l 31 19 l 239 994 q 251 1011 243 1011 l 372 1011 q 381 1001 381 1011 q 379 994 381 997 l 171 19 z "},"J":{"ha":250,"x_min":10,"x_max":439,"o":"m 33 117 l 78 117 q 107 133 93 117 q 126 176 121 150 l 301 994 q 306 1008 304 1006 q 313 1011 307 1011 l 433 1011 q 438 1006 436 1011 q 438 994 439 1000 l 261 168 q 203 45 244 90 q 110 0 163 0 l 10 0 l 33 117 z "},"K":{"ha":482,"x_min":29,"x_max":633,"o":"m 274 522 l 163 0 l 46 0 q 29 17 29 0 l 29 19 l 243 990 q 264 1011 247 1011 l 376 1011 l 286 582 l 507 1011 l 621 1011 q 633 997 633 1011 q 632 990 633 993 l 415 550 l 461 19 q 439 0 458 0 l 329 0 l 274 522 z "},"L":{"ha":349,"x_min":31,"x_max":381,"o":"m 336 140 q 350 132 350 140 l 350 131 l 325 10 q 307 0 324 0 l 47 0 q 31 17 31 0 l 31 19 l 239 994 q 251 1011 243 1011 l 372 1011 q 381 1001 381 1011 q 379 994 381 997 l 197 140 l 336 140 z "},"M":{"ha":690,"x_min":33,"x_max":869,"o":"m 417 314 l 694 1011 l 856 1011 q 866 1004 863 1011 q 867 990 869 997 l 660 19 q 638 0 656 0 l 528 0 l 674 682 l 408 0 l 293 0 l 301 669 l 160 0 l 53 0 q 39 6 44 0 q 36 19 33 13 l 243 990 q 264 1011 247 1011 l 410 1011 l 417 314 z "},"N":{"ha":438,"x_min":28,"x_max":618,"o":"m 604 1011 q 615 1004 611 1011 q 615 990 618 997 l 408 19 q 386 0 404 0 l 297 0 l 268 531 l 156 0 l 47 0 q 33 6 39 0 q 31 19 28 13 l 238 990 q 258 1011 242 1011 l 350 1011 l 375 449 l 494 1011 l 604 1011 z "},"O":{"ha":438,"x_min":58,"x_max":586,"o":"m 433 817 q 435 828 435 824 q 436 836 436 832 q 400 871 436 871 q 344 817 356 871 l 208 176 q 206 164 206 168 q 206 154 206 160 q 239 119 206 119 q 276 135 260 119 q 297 176 292 150 l 433 817 m 201 835 q 231 908 210 874 q 283 969 253 943 q 349 1009 313 994 q 425 1024 386 1024 q 541 981 496 1024 q 586 872 586 939 q 582 835 586 853 l 440 167 q 414 108 435 140 q 365 47 393 75 q 208 -18 297 -18 q 83 46 119 -18 q 65 91 71 67 q 58 139 58 115 q 63 181 58 161 l 201 835 z "},"P":{"ha":426,"x_min":28,"x_max":588,"o":"m 171 19 q 149 0 167 0 l 47 0 q 33 6 39 0 q 31 19 28 13 l 239 994 q 251 1011 243 1011 l 451 1011 q 551 979 514 1011 q 588 892 588 947 q 587 871 588 882 q 583 851 586 860 l 529 599 q 474 493 514 531 q 360 440 433 456 l 261 440 l 171 19 m 340 569 q 403 628 390 569 l 444 824 q 447 835 447 831 q 447 844 447 839 q 419 874 447 874 l 351 874 l 288 569 l 340 569 z "},"Q":{"ha":426,"x_min":46,"x_max":579,"o":"m 432 808 q 434 822 433 817 q 435 833 435 826 q 392 881 435 881 q 335 811 349 881 l 201 183 q 198 168 199 172 q 197 157 197 164 q 235 118 197 118 q 301 192 285 118 l 432 808 m 103 -35 q 118 -61 107 -54 q 156 -68 129 -68 l 297 -68 q 344 -75 331 -68 q 357 -101 357 -82 q 356 -111 357 -106 q 354 -124 356 -117 l 354 -126 l 339 -201 q 317 -197 332 -199 q 261 -196 301 -196 l 118 -196 q 46 -149 46 -196 q 50 -122 46 -139 l 69 -35 l 103 -35 m 199 813 q 265 954 215 894 q 332 1007 294 990 q 426 1024 369 1024 q 542 988 506 1024 q 579 872 579 951 q 578 841 579 857 q 574 811 576 825 l 439 182 q 413 113 432 147 q 369 53 394 79 q 208 -8 311 -8 q 82 64 108 -8 q 67 113 72 88 q 63 160 63 138 q 67 196 63 179 l 199 813 z "},"R":{"ha":438,"x_min":28,"x_max":593,"o":"m 171 19 q 149 0 167 0 l 47 0 q 33 6 39 0 q 31 19 28 13 l 239 994 q 251 1011 243 1011 l 471 1011 q 558 976 524 1011 q 593 889 593 942 q 592 876 593 882 q 589 857 592 869 l 542 635 q 508 574 535 601 q 442 536 481 547 q 500 467 500 525 q 499 453 500 460 q 497 440 499 447 l 404 0 l 303 0 q 271 44 271 0 q 272 63 271 51 q 275 82 272 74 l 343 404 q 344 412 344 407 q 344 421 344 417 q 311 453 344 453 l 264 453 l 171 19 m 326 576 q 382 606 365 576 q 393 643 385 610 q 410 716 401 676 q 427 791 419 756 q 435 836 435 826 l 435 838 l 436 839 l 436 846 q 427 870 436 861 q 406 879 418 879 l 356 879 l 292 576 l 326 576 z "},"S":{"ha":432,"x_min":60,"x_max":583,"o":"m 431 819 q 433 835 433 826 q 397 868 433 868 q 358 849 374 868 q 336 806 346 833 q 326 764 326 779 l 326 754 q 325 751 325 753 q 324 749 325 750 q 324 744 324 747 q 322 733 322 742 q 321 717 321 724 q 336 648 321 679 q 388 578 351 617 q 461 483 438 525 q 485 403 485 442 q 479 360 485 381 l 436 153 q 408 97 431 128 q 354 39 386 67 q 207 -18 286 -18 q 98 21 136 -18 q 60 131 60 60 q 61 164 60 149 q 68 204 63 179 l 100 356 q 113 372 104 372 l 239 372 q 247 363 247 372 q 246 356 247 358 l 207 175 q 205 163 206 167 q 204 154 204 158 q 238 125 204 125 q 293 178 282 125 l 324 324 q 326 334 325 329 q 326 346 326 339 q 322 397 326 375 q 306 440 318 419 q 275 482 294 461 q 226 528 256 503 q 184 582 197 553 q 171 651 171 611 q 173 686 171 667 q 178 722 175 706 l 204 849 q 231 903 211 874 q 281 961 250 933 q 432 1024 349 1024 q 541 981 499 1024 q 583 869 583 938 q 583 858 583 864 q 582 851 583 853 l 549 694 q 525 675 546 675 l 419 675 q 404 690 404 675 l 404 694 l 421 772 l 431 819 z "},"T":{"ha":390,"x_min":124,"x_max":588,"o":"m 268 19 q 246 0 264 0 l 143 0 q 129 6 135 0 q 126 19 124 13 l 310 879 l 200 879 l 225 994 q 238 1011 229 1011 l 579 1011 q 588 1001 588 1011 q 586 994 588 999 l 561 879 l 451 879 l 268 19 z "},"U":{"ha":438,"x_min":64,"x_max":618,"o":"m 449 197 q 215 -17 403 -17 q 103 23 143 -17 q 64 138 64 63 q 66 165 64 151 q 71 194 68 179 l 240 993 q 254 1011 242 1011 l 368 1011 q 375 1003 375 1011 q 374 996 375 999 l 374 993 l 207 204 q 203 182 204 189 q 201 167 201 175 q 242 118 201 118 q 315 204 296 118 l 482 993 q 496 1011 483 1011 l 611 1011 q 618 1003 618 1011 q 617 994 618 997 l 617 993 l 449 197 z "},"V":{"ha":479,"x_min":163,"x_max":676,"o":"m 321 19 q 299 0 317 0 l 179 0 q 163 17 163 0 l 163 19 l 219 990 q 240 1011 224 1011 l 369 1011 l 301 294 l 529 1011 l 664 1011 q 676 997 676 1011 q 675 990 676 993 l 321 19 z "},"W":{"ha":736,"x_min":129,"x_max":928,"o":"m 618 19 q 596 0 614 0 l 465 0 l 506 649 l 264 0 l 149 0 q 132 19 129 0 l 226 990 q 247 1011 231 1011 l 376 1011 l 308 438 l 511 1011 l 658 1011 l 611 424 l 790 1011 l 915 1011 q 928 997 928 1011 q 926 990 928 993 l 618 19 z "},"X":{"ha":489,"x_min":15,"x_max":690,"o":"m 488 19 q 465 0 483 0 l 335 0 l 324 367 l 160 0 l 32 0 q 15 17 15 0 l 15 19 l 264 510 l 224 994 q 236 1011 228 1011 l 379 1011 l 389 678 l 543 1011 l 682 1011 q 690 1001 690 1011 q 689 994 690 999 l 446 514 l 488 19 z "},"Y":{"ha":496,"x_min":171,"x_max":708,"o":"m 381 331 l 314 19 q 292 0 310 0 l 190 0 q 176 6 182 0 q 174 19 171 13 l 240 331 l 211 994 q 224 1011 215 1011 l 372 1011 l 363 567 l 551 1011 l 700 1011 q 708 1001 708 1011 q 707 994 708 999 l 381 331 z "},"Z":{"ha":383,"x_min":14,"x_max":593,"o":"m 365 10 q 347 0 363 0 l 14 0 l 385 871 l 215 871 q 200 881 200 871 l 226 1001 q 244 1011 226 1011 l 593 1011 l 206 115 l 371 115 q 386 106 386 115 l 365 10 z "},"[":{"ha":356,"x_min":-10,"x_max":549,"o":"m 535 1088 q 549 1079 549 1088 l 549 1078 l 524 960 q 506 950 524 950 l 385 950 l 156 -129 l 276 -129 q 290 -137 290 -129 l 290 -139 l 265 -257 q 247 -267 265 -267 l -10 -267 l 276 1088 l 414 1088 l 535 1088 z "},"\\":{"ha":535,"x_min":218,"x_max":450,"o":"m 218 1001 q 229 1011 221 1011 l 315 1011 q 325 992 325 1011 l 331 932 q 343 793 336 863 q 357 644 350 724 q 373 468 364 564 q 393 249 382 372 q 418 -28 404 126 q 450 -382 432 -183 q 449 -394 450 -392 q 436 -410 444 -410 l 360 -410 q 343 -393 346 -410 l 218 992 l 218 997 l 218 1001 z "},"]":{"ha":356,"x_min":-11,"x_max":549,"o":"m 549 1088 l 261 -267 l 3 -267 q -11 -257 -11 -267 l 13 -139 q 32 -129 17 -129 l 153 -129 l 382 950 l 261 950 q 246 960 246 950 l 271 1078 q 290 1088 275 1088 l 411 1088 l 549 1088 z "},"^":{"ha":456,"x_min":210,"x_max":583,"o":"m 554 1099 q 564 1085 564 1099 l 582 822 q 579 811 583 815 q 568 807 575 807 l 504 807 q 490 819 490 807 l 482 854 q 454 965 464 922 q 440 1029 444 1007 q 394 956 425 1003 q 319 843 364 910 l 313 833 l 306 824 q 303 819 304 821 q 283 807 296 807 l 219 807 q 210 815 210 807 q 211 822 210 821 l 343 1085 q 358 1099 347 1099 l 457 1099 l 554 1099 z "},"_":{"ha":717,"x_min":-7,"x_max":676,"o":"m 660 -61 q 676 -75 676 -61 q 675 -81 676 -78 l 657 -169 q 633 -189 654 -189 l 8 -189 q -7 -175 -7 -189 l -7 -169 l 10 -81 q 35 -61 14 -61 l 660 -61 z "},"`":{"ha":271,"x_min":276,"x_max":414,"o":"m 336 807 q 322 819 322 807 q 315 858 318 842 q 308 899 313 874 q 297 967 304 924 q 276 1085 289 1010 q 289 1099 276 1099 l 385 1099 q 396 1085 394 1099 l 414 822 q 400 807 414 807 l 336 807 z "},"a":{"ha":415,"x_min":61,"x_max":525,"o":"m 369 579 l 369 585 q 358 607 368 597 q 336 617 349 617 q 308 606 321 617 q 292 578 294 594 l 199 143 q 197 136 197 140 q 197 128 197 132 q 228 92 197 92 q 278 144 267 92 l 369 579 m 518 742 q 525 735 525 742 q 524 725 525 729 l 374 19 q 351 0 369 0 l 276 0 l 274 54 q 229 4 260 22 q 158 -14 199 -14 q 88 10 114 -14 q 61 78 61 35 q 65 114 61 94 l 181 654 q 195 681 183 665 q 225 714 207 697 q 264 742 246 733 q 303 750 282 750 q 381 701 350 750 q 388 689 386 694 q 389 675 389 683 l 418 742 l 518 742 z "},"b":{"ha":415,"x_min":38,"x_max":508,"o":"m 371 575 q 372 581 372 578 q 372 588 372 585 q 338 619 372 619 q 306 608 321 619 q 288 581 290 596 l 193 135 q 192 122 192 128 q 226 93 192 93 q 261 108 246 93 q 281 144 276 122 l 371 575 m 54 0 q 38 17 38 0 l 38 18 l 38 19 l 244 992 q 258 1008 249 1008 l 374 1008 q 381 1001 381 1008 q 379 992 381 997 l 314 685 q 429 750 361 750 q 508 658 508 750 q 506 631 508 646 q 501 600 504 617 l 393 89 q 377 56 390 75 q 346 19 364 36 q 306 -6 326 1 q 256 -14 286 -14 q 208 -5 225 -14 q 171 28 190 4 q 161 47 161 42 l 161 50 l 142 0 l 54 0 z "},"c":{"ha":374,"x_min":53,"x_max":476,"o":"m 393 292 q 403 278 403 288 l 369 119 q 299 24 347 58 q 189 -11 251 -11 q 88 21 124 -11 q 53 111 53 53 q 57 150 53 131 l 156 611 q 223 715 169 674 q 346 756 276 756 q 443 726 410 756 q 476 639 476 696 q 476 625 476 631 q 474 611 476 619 l 453 511 q 436 496 450 496 l 342 496 q 332 507 329 496 l 350 594 l 350 596 q 351 603 351 599 q 321 633 351 633 q 278 594 288 633 l 183 150 q 182 139 182 146 q 211 104 182 104 q 239 117 226 104 q 256 150 251 129 l 283 278 q 299 292 286 292 l 393 292 z "},"d":{"ha":413,"x_min":56,"x_max":589,"o":"m 374 583 q 375 590 375 586 q 375 596 375 593 q 339 626 375 626 q 293 589 301 626 l 199 146 l 199 143 q 197 135 197 140 q 208 110 197 119 q 233 100 218 100 q 282 151 271 100 l 374 583 m 461 992 q 475 1008 465 1008 l 582 1008 q 589 1001 589 1008 q 588 992 589 994 l 381 19 q 358 0 376 0 l 267 0 l 261 43 q 212 -1 243 15 q 146 -17 181 -17 q 56 78 56 -17 q 57 103 56 89 q 61 129 58 117 l 168 632 q 185 674 172 653 q 217 714 197 694 q 259 742 236 733 q 314 750 282 750 q 360 743 344 750 q 388 717 376 736 q 397 689 397 699 l 461 992 z "},"e":{"ha":411,"x_min":65,"x_max":504,"o":"m 200 135 q 208 113 197 125 q 229 101 219 101 q 253 116 239 101 q 271 142 268 131 l 296 256 q 308 272 300 272 l 421 272 q 428 263 428 272 l 428 256 l 397 114 q 373 65 392 89 q 328 24 354 42 q 270 -6 301 6 q 207 -17 239 -17 q 106 17 147 -17 q 65 101 65 51 q 66 113 65 107 q 68 125 67 118 l 172 617 q 239 714 185 676 q 367 751 293 751 q 478 706 444 751 q 504 633 504 671 q 503 618 504 624 l 451 376 q 439 360 447 360 l 249 360 l 200 135 m 372 596 l 372 603 q 363 625 372 617 q 339 633 354 633 q 299 592 307 633 l 274 476 l 346 476 l 372 596 z "},"f":{"ha":318,"x_min":71,"x_max":501,"o":"m 265 888 q 283 933 269 911 q 317 971 297 954 q 358 998 336 988 q 401 1008 381 1008 l 482 1008 q 497 989 501 1008 l 475 893 q 454 894 469 894 q 382 839 394 894 l 361 742 l 419 742 q 435 722 439 742 l 417 635 q 393 615 411 615 l 333 615 l 206 19 q 183 0 201 0 l 90 0 q 76 6 82 0 q 74 19 71 13 l 201 615 l 179 615 q 163 635 157 615 l 181 722 q 206 742 185 742 l 235 742 l 265 888 z "},"g":{"ha":410,"x_min":15,"x_max":526,"o":"m 511 742 q 526 728 526 742 l 526 722 l 354 -87 q 292 -182 343 -135 q 230 -222 261 -210 q 160 -233 199 -233 q 54 -199 93 -233 q 15 -106 15 -164 q 19 -72 15 -92 l 21 -68 l 149 -68 q 144 -100 144 -87 q 175 -129 144 -129 q 232 -62 218 -129 l 254 42 q 205 1 235 15 q 140 -14 175 -14 q 79 13 104 -14 q 54 79 54 39 q 57 106 54 92 l 163 606 q 183 661 168 635 q 219 708 199 688 q 263 740 239 728 q 310 751 286 751 q 394 700 371 751 l 394 697 l 396 694 l 397 688 l 418 742 l 511 742 m 196 143 l 194 139 q 203 116 192 128 q 229 104 215 104 q 276 150 265 104 l 368 581 q 369 596 369 586 q 338 626 369 626 q 289 581 297 626 l 197 150 l 196 143 z "},"h":{"ha":415,"x_min":42,"x_max":515,"o":"m 313 686 q 362 734 336 719 q 424 749 388 749 q 491 725 467 749 q 515 658 515 701 q 515 646 515 651 q 511 628 514 640 l 381 19 q 358 0 376 0 l 272 0 q 258 6 264 0 q 256 19 253 13 l 374 571 q 375 585 375 575 q 340 617 375 617 q 288 561 300 617 l 172 19 q 150 0 168 0 l 61 0 q 47 6 53 0 q 44 19 42 13 l 251 992 q 265 1008 256 1008 l 371 1008 q 378 1001 378 1008 q 376 992 378 996 l 313 686 z "},"i":{"ha":201,"x_min":36,"x_max":382,"o":"m 172 21 q 153 0 168 0 l 51 0 q 36 18 36 0 l 36 21 l 185 725 q 192 737 188 732 q 200 742 196 742 l 318 742 q 322 735 322 742 q 321 725 322 728 l 172 21 m 314 1011 q 363 992 343 1011 q 382 946 382 974 q 374 908 382 926 q 351 876 365 890 q 317 854 336 863 q 278 846 299 846 q 231 864 250 846 q 213 910 213 882 q 221 947 213 929 q 243 980 229 965 q 276 1003 257 994 q 314 1011 294 1011 z "},"j":{"ha":250,"x_min":-35,"x_max":424,"o":"m -8 -104 l 22 -104 q 45 -89 35 -104 q 61 -49 56 -74 l 225 725 q 238 742 229 742 l 358 742 q 364 736 364 742 q 363 725 364 729 l 197 -57 q 140 -178 182 -132 q 44 -225 97 -225 l -35 -225 l -8 -104 m 357 1011 q 404 992 385 1011 q 424 946 424 974 q 415 908 424 926 q 392 877 407 890 q 359 856 378 864 q 321 847 340 847 q 274 866 293 847 q 256 913 256 885 q 264 949 256 931 q 287 981 272 967 q 319 1003 301 994 q 357 1011 338 1011 z "},"k":{"ha":421,"x_min":33,"x_max":543,"o":"m 364 356 l 408 19 q 389 0 408 0 l 275 0 l 246 351 l 417 742 l 528 742 q 543 722 543 742 l 364 356 m 168 19 q 146 0 164 0 l 53 0 q 39 6 44 0 q 36 19 33 13 l 243 992 q 257 1008 247 1008 l 369 1008 q 376 1001 376 1008 q 375 992 376 996 l 239 351 l 168 19 z "},"l":{"ha":186,"x_min":31,"x_max":374,"o":"m 164 19 q 142 0 160 0 l 47 0 q 31 17 31 0 l 31 19 l 239 994 q 251 1011 243 1011 l 365 1011 q 374 1001 374 1011 q 372 994 374 997 l 164 19 z "},"m":{"ha":626,"x_min":35,"x_max":725,"o":"m 501 669 q 526 703 511 688 q 560 731 542 719 q 598 750 578 743 q 636 757 618 757 q 701 730 678 757 q 725 657 725 703 q 723 628 725 642 q 717 593 721 615 l 596 21 q 576 0 592 0 l 482 0 q 469 6 475 0 q 467 21 464 13 l 583 571 l 585 590 q 550 626 585 626 q 501 581 511 626 l 383 21 q 364 0 379 0 l 269 0 q 257 6 263 0 q 254 21 251 13 l 371 572 l 372 586 q 336 619 372 619 q 288 574 297 619 l 171 21 q 151 0 167 0 l 53 0 q 40 6 46 0 q 38 21 35 13 l 186 725 q 192 737 188 732 q 201 742 197 742 l 296 742 l 296 682 q 347 731 315 713 q 413 749 378 749 q 477 730 451 749 q 503 682 503 711 q 501 671 503 675 l 501 669 z "},"n":{"ha":399,"x_min":38,"x_max":510,"o":"m 297 676 q 424 751 338 751 q 487 732 464 751 q 510 676 510 713 q 509 665 510 669 q 506 649 508 660 l 372 21 q 353 0 368 0 l 264 0 q 249 17 249 0 l 249 21 l 368 582 q 369 590 369 585 q 369 597 369 594 q 333 631 369 631 q 279 574 292 631 l 163 21 q 143 0 158 0 l 53 0 q 38 17 38 0 l 38 21 l 186 725 q 192 737 188 732 q 201 742 197 742 l 300 742 l 297 676 z "},"o":{"ha":388,"x_min":54,"x_max":490,"o":"m 357 588 q 360 599 360 594 q 360 607 360 603 q 328 639 360 639 q 279 588 290 639 l 190 160 q 186 128 186 140 q 215 93 186 93 q 248 108 236 93 q 267 160 260 124 l 357 588 m 158 613 q 347 751 188 751 q 490 632 490 751 l 489 608 l 388 133 q 332 38 376 85 q 272 -3 304 10 q 194 -17 239 -17 q 90 13 126 -17 q 54 99 54 43 q 60 146 54 124 l 158 613 z "},"p":{"ha":406,"x_min":-10,"x_max":513,"o":"m 126 -206 q 118 -219 125 -214 q 103 -225 111 -225 l 4 -225 q -10 -210 -10 -225 l -10 -206 l 186 725 q 200 742 190 742 l 304 742 l 308 688 q 363 735 332 718 q 429 751 393 751 q 513 667 513 751 q 511 643 513 654 q 506 614 510 632 l 401 118 q 382 66 396 90 q 349 24 368 42 q 308 -3 331 7 q 264 -14 286 -14 q 207 3 233 -14 q 181 40 181 21 l 181 46 l 126 -206 m 372 576 q 375 597 375 590 q 343 631 375 631 q 310 617 324 631 q 290 581 296 604 l 201 158 q 199 145 199 149 q 199 135 199 142 q 231 101 199 101 q 283 163 271 101 l 372 576 z "},"q":{"ha":390,"x_min":53,"x_max":517,"o":"m 510 742 q 517 735 517 742 q 515 725 517 728 l 318 -206 q 310 -219 317 -214 q 294 -225 303 -225 l 213 -225 q 197 -210 197 -225 l 197 -206 l 251 47 q 227 24 242 35 q 197 4 213 13 q 166 -9 182 -4 q 138 -14 150 -14 q 105 -5 122 -14 q 74 19 88 4 q 53 83 53 42 q 58 133 53 110 l 154 583 q 174 642 161 613 q 201 696 186 672 q 308 750 239 750 q 374 732 347 750 q 400 686 400 714 l 424 742 l 510 742 m 189 164 q 188 151 188 158 q 221 117 188 117 q 253 129 240 117 q 271 164 267 142 l 357 574 q 361 601 361 594 q 329 638 361 638 q 275 575 289 638 l 192 178 l 189 164 z "},"r":{"ha":315,"x_min":38,"x_max":443,"o":"m 382 611 q 276 531 293 611 l 168 21 q 149 0 164 0 l 53 0 q 38 17 38 0 l 38 21 l 186 725 q 192 737 188 732 q 201 742 197 742 l 300 742 l 294 681 q 443 749 333 749 l 413 607 l 382 611 z "},"s":{"ha":399,"x_min":57,"x_max":488,"o":"m 339 488 l 357 575 q 360 591 360 586 q 361 603 361 596 q 332 639 361 639 q 276 564 293 639 q 272 526 272 540 q 274 503 272 513 q 281 485 275 493 q 299 467 288 476 q 332 443 311 457 q 419 294 419 383 q 414 250 419 271 l 396 164 q 371 94 389 131 q 331 33 353 57 q 273 -6 307 6 q 189 -18 239 -18 q 85 6 113 -18 q 57 97 57 31 q 58 131 57 113 q 63 163 60 150 l 89 285 l 213 285 l 185 156 l 183 135 q 213 100 183 100 q 269 164 256 100 l 278 200 q 283 226 281 211 q 285 249 285 240 q 281 276 285 264 q 266 303 278 289 q 233 338 254 318 q 179 388 213 358 q 151 422 158 406 q 143 465 143 438 q 146 501 143 479 q 153 548 149 524 q 163 595 157 572 q 174 633 168 618 q 356 747 213 747 q 458 721 428 747 q 488 631 488 694 q 483 571 488 604 q 468 488 479 538 l 339 488 z "},"t":{"ha":307,"x_min":94,"x_max":429,"o":"m 264 878 q 288 897 268 897 l 374 897 q 390 883 390 897 l 390 879 l 389 878 l 360 742 l 413 742 q 429 728 429 742 q 428 722 429 724 l 410 636 q 386 617 407 617 l 333 617 l 239 175 q 235 154 236 160 q 235 142 235 149 q 247 122 235 126 q 301 117 258 117 l 276 -4 l 210 -8 q 167 -5 190 -10 q 129 8 143 0 q 94 79 94 26 q 96 103 94 90 q 100 131 97 117 l 204 617 l 179 617 q 163 631 163 617 l 163 636 l 181 722 q 206 742 185 742 l 235 742 l 264 878 z "},"u":{"ha":401,"x_min":54,"x_max":521,"o":"m 258 38 q 206 -1 242 15 q 135 -17 169 -17 q 75 10 96 -17 q 54 88 54 38 q 63 156 54 119 l 183 725 q 189 737 185 732 q 199 742 193 742 l 308 742 q 314 732 314 742 l 314 725 l 194 158 q 191 145 192 150 q 190 133 190 140 q 224 97 190 97 q 276 163 263 97 l 396 725 q 401 737 397 732 q 411 742 406 742 l 515 742 q 521 732 521 742 l 521 725 l 372 21 q 353 0 368 0 l 268 0 l 258 38 z "},"v":{"ha":424,"x_min":135,"x_max":560,"o":"m 290 19 q 268 0 286 0 l 151 0 q 135 17 135 0 l 135 19 l 172 721 q 193 742 176 742 l 304 742 l 271 292 l 424 742 l 547 742 q 560 728 560 742 q 558 721 560 724 l 290 19 z "},"w":{"ha":676,"x_min":119,"x_max":803,"o":"m 563 19 q 540 0 558 0 l 410 0 l 429 464 l 256 0 l 139 0 q 122 19 119 0 l 178 721 q 199 742 182 742 l 313 742 l 258 285 l 422 742 l 558 742 l 532 285 l 672 742 l 790 742 q 803 728 803 742 q 801 721 803 724 l 563 19 z "},"x":{"ha":414,"x_min":32,"x_max":549,"o":"m 171 725 q 185 742 176 742 l 311 742 l 308 446 l 417 742 l 542 742 q 549 735 549 742 l 547 725 l 375 360 l 397 19 q 375 0 393 0 l 272 0 l 272 276 l 158 0 l 49 0 q 32 19 32 0 l 194 360 l 171 725 z "},"y":{"ha":410,"x_min":51,"x_max":544,"o":"m 185 -224 l 51 -224 l 138 0 l 171 725 q 185 742 176 742 l 303 742 l 261 272 l 419 742 l 538 742 q 544 735 544 742 l 543 725 l 185 -224 z "},"z":{"ha":340,"x_min":22,"x_max":471,"o":"m 318 10 q 300 0 315 0 l 22 0 l 46 111 l 306 619 l 169 619 q 156 628 156 619 l 156 629 l 178 732 q 196 742 178 742 l 471 742 l 444 618 l 186 121 l 325 121 q 340 111 340 121 l 318 10 z "},"{":{"ha":367,"x_min":88,"x_max":553,"o":"m 115 317 q 100 326 99 317 l 126 447 q 144 457 129 457 l 203 457 l 283 833 q 313 905 292 872 q 364 961 333 938 q 432 998 394 985 q 510 1011 469 1011 q 529 1010 521 1011 q 553 1007 538 1010 l 511 811 l 513 824 l 513 828 q 475 869 513 869 q 422 815 432 869 l 233 -72 q 231 -90 231 -83 q 267 -125 231 -125 q 303 -112 290 -125 q 324 -68 315 -100 l 282 -264 l 251 -267 q 188 -261 210 -267 q 147 -240 167 -256 q 103 -183 119 -219 q 88 -106 88 -147 q 92 -71 88 -87 l 174 317 l 115 317 z "},"|":{"ha":183,"x_min":-24,"x_max":367,"o":"m 103 -247 q 79 -267 100 -267 l -8 -267 q -24 -253 -24 -267 l -24 -247 l 238 990 q 261 1011 242 1011 l 350 1011 q 367 996 367 1011 q 365 990 367 993 l 103 -247 z "},"}":{"ha":367,"x_min":-22,"x_max":446,"o":"m 250 -71 q 213 -154 238 -117 q 155 -218 188 -192 q 84 -257 122 -244 q 7 -267 46 -269 l -22 -264 l 18 -68 q 16 -80 17 -75 q 15 -89 15 -85 q 49 -125 15 -125 q 106 -72 93 -125 l 294 815 q 297 828 296 822 q 297 839 297 833 q 267 869 297 869 q 206 811 218 869 l 247 1007 q 270 1010 263 1010 q 289 1011 278 1011 q 403 973 360 1011 q 446 872 446 935 q 442 833 446 851 l 361 457 l 419 457 q 435 447 435 457 l 408 326 q 390 317 408 317 l 332 317 l 250 -71 z "},"~":{"ha":524,"x_min":128,"x_max":549,"o":"m 532 425 q 501 369 525 386 q 431 351 476 351 l 229 351 q 190 344 206 351 q 161 317 175 336 l 128 317 l 146 406 q 246 481 160 481 l 446 481 q 488 488 474 481 q 514 514 503 494 l 549 514 l 532 425 z "}," ":{"ha":278,"x_min":0,"x_max":0,"o":""},"¡":{"ha":231,"x_min":-28,"x_max":340,"o":"m 275 751 q 322 733 303 751 q 340 688 340 715 q 310 617 340 647 q 240 586 279 586 q 192 606 211 586 q 172 654 172 625 q 181 690 172 672 q 203 722 189 708 q 237 743 218 735 q 275 751 256 751 m 269 471 l 147 -254 q 131 -274 144 -274 l -12 -274 q -24 -269 -19 -274 q -26 -258 -28 -265 l 164 471 l 269 471 z "},"¢":{"ha":374,"x_min":53,"x_max":476,"o":"m 197 -140 q 182 -151 194 -151 l 131 -151 q 121 -143 121 -151 l 121 -140 l 149 -7 q 76 33 99 4 q 53 110 53 61 q 57 150 53 131 l 156 611 q 213 707 172 669 q 311 753 253 744 l 338 876 q 351 888 340 888 l 403 888 q 414 876 414 888 l 386 751 q 476 638 476 729 q 476 624 476 631 q 474 611 475 618 l 453 511 q 436 496 450 496 l 342 496 q 332 504 332 496 l 332 507 l 350 594 q 351 603 351 600 q 321 633 351 633 q 278 594 288 633 l 183 150 l 183 149 q 182 144 182 147 q 182 139 182 142 q 211 104 182 104 q 239 117 226 104 q 256 150 251 129 l 283 278 q 299 292 286 292 l 393 292 q 403 278 403 288 l 369 119 q 311 33 349 67 q 225 -8 274 0 l 197 -140 z "},"£":{"ha":529,"x_min":114,"x_max":674,"o":"m 504 10 q 486 0 501 0 l 114 0 l 204 429 l 136 429 q 122 438 122 429 l 122 439 l 147 557 q 165 567 147 567 l 233 567 l 290 833 q 320 907 299 872 q 372 967 342 942 q 438 1008 401 993 q 513 1022 475 1022 q 629 980 585 1022 q 674 868 674 938 q 673 851 674 860 q 671 833 672 843 l 524 815 q 525 824 525 818 q 525 833 525 829 q 490 869 525 869 q 433 815 444 869 l 381 567 l 463 567 q 478 557 478 567 l 453 439 q 433 429 449 429 l 351 429 l 289 133 l 514 133 q 528 125 528 133 l 528 124 l 504 10 z "},"¤":{"ha":610,"x_min":135,"x_max":764,"o":"m 488 851 q 415 835 450 851 q 353 791 381 818 q 310 728 326 764 q 293 656 293 693 q 328 565 293 600 q 417 529 363 529 q 487 546 453 529 q 547 590 521 563 q 590 653 574 618 q 606 725 606 688 q 573 817 606 782 q 488 851 540 851 m 207 539 q 188 583 193 561 q 182 635 182 606 q 206 749 182 693 q 271 842 231 804 l 225 903 l 296 961 l 340 901 q 504 951 417 951 q 646 901 592 951 l 718 961 l 764 903 l 690 842 q 710 801 704 822 q 717 751 717 781 q 626 539 717 629 l 674 478 l 606 422 l 558 482 q 393 429 483 429 q 250 482 304 429 l 178 422 l 135 478 l 207 539 z "},"¥":{"ha":496,"x_min":104,"x_max":707,"o":"m 231 526 l 165 526 q 149 540 149 526 l 149 546 l 168 635 q 193 654 172 654 l 225 654 l 210 994 q 222 1011 214 1011 l 371 1011 l 364 654 l 399 654 l 550 1011 l 699 1011 q 707 1001 707 1011 q 706 994 707 999 l 539 654 l 593 654 q 610 640 610 654 q 608 635 610 636 l 589 546 q 565 526 586 526 l 475 526 l 433 442 l 547 442 q 564 428 564 442 q 563 422 564 425 l 544 333 q 521 314 542 314 l 376 314 l 313 19 q 290 0 308 0 l 189 0 q 176 5 182 0 q 172 17 171 10 l 172 19 l 236 314 l 121 314 q 104 328 104 314 l 104 333 l 122 422 q 147 442 126 442 l 233 442 l 231 526 z "},"¦":{"ha":183,"x_min":-24,"x_max":367,"o":"m 103 -247 q 79 -267 100 -267 l -8 -267 q -24 -253 -24 -267 l -24 -247 l 82 256 q 106 276 86 276 l 194 276 q 211 261 211 276 q 210 256 211 258 l 103 -247 m 258 488 q 235 468 256 468 l 146 468 q 131 482 131 468 l 131 488 l 238 990 q 261 1011 242 1011 l 350 1011 q 367 996 367 1011 q 365 990 367 993 l 258 488 z "},"§":{"ha":465,"x_min":28,"x_max":614,"o":"m 407 -90 q 329 -182 396 -136 q 183 -228 261 -228 q 68 -194 108 -228 q 28 -97 28 -160 q 33 -49 28 -71 l 58 67 q 82 88 63 88 l 190 88 q 206 72 206 88 l 206 67 l 175 -72 q 174 -83 174 -81 q 174 -87 174 -85 q 208 -112 174 -112 q 261 -69 251 -112 l 286 47 q 289 60 289 56 q 289 71 289 64 q 265 140 289 108 q 178 213 240 172 q 117 325 117 253 q 122 368 117 342 l 143 469 q 163 512 147 490 q 201 551 179 533 q 251 583 224 569 q 307 603 278 596 q 290 615 299 610 q 267 631 282 621 q 206 743 206 665 q 207 762 206 754 q 211 786 208 769 l 232 888 q 306 978 240 929 q 376 1017 342 1006 q 456 1028 410 1028 q 570 994 526 1028 q 614 907 614 961 q 614 898 614 903 q 613 890 614 893 l 586 768 q 563 749 581 749 l 456 749 q 443 752 449 749 q 439 763 438 756 l 439 764 q 440 768 439 767 l 461 865 q 463 876 463 869 q 424 904 463 904 q 388 894 400 904 q 369 854 376 883 q 367 844 369 853 l 365 842 q 360 821 364 828 l 358 813 q 356 799 356 804 q 356 786 356 793 q 375 726 356 754 q 449 653 394 697 q 513 585 494 614 q 532 522 532 557 q 531 508 532 515 q 529 493 531 500 l 529 486 l 494 326 q 458 267 489 299 q 383 217 428 236 q 428 158 415 183 q 442 101 442 133 q 442 89 442 94 q 440 76 442 83 l 440 68 l 407 -90 m 264 344 q 263 335 263 338 q 263 331 263 333 q 297 304 263 304 q 350 347 342 304 l 371 447 q 372 458 372 451 q 335 486 372 486 q 290 467 304 486 l 264 344 z "},"¨":{"ha":443,"x_min":250,"x_max":597,"o":"m 346 1008 q 392 990 374 1008 q 411 943 411 971 q 403 908 411 925 q 381 878 394 892 q 350 858 368 865 q 314 850 332 850 q 268 868 286 850 q 250 914 250 886 q 258 949 250 932 q 280 978 267 965 q 310 1000 293 992 q 346 1008 328 1008 m 532 1008 q 578 990 560 1008 q 597 943 597 971 q 589 908 597 925 q 567 878 581 892 q 536 858 554 865 q 500 850 518 850 q 454 868 472 850 q 436 914 436 886 q 444 949 436 932 q 466 978 453 965 q 497 1000 479 992 q 532 1008 514 1008 z "},"©":{"ha":1061,"x_min":97,"x_max":1176,"o":"m 728 735 q 729 740 729 738 q 722 765 731 756 q 701 775 714 775 q 674 763 686 775 q 657 735 661 750 l 557 264 l 557 256 q 585 228 557 228 q 613 238 600 228 q 628 264 625 249 l 656 396 q 667 411 661 411 l 746 411 q 754 400 757 406 l 753 396 l 724 257 q 713 229 721 247 q 696 199 704 211 q 563 129 646 129 q 461 232 461 129 q 463 258 461 246 q 468 290 464 269 l 564 743 q 621 845 578 806 q 721 885 664 885 q 829 774 829 885 q 825 735 829 751 l 806 643 q 793 632 803 632 l 710 632 q 707 640 707 632 l 728 735 m 736 951 q 526 906 628 951 q 348 785 425 861 q 224 612 271 710 q 178 408 178 514 q 205 265 178 331 q 280 153 232 200 q 395 81 328 107 q 542 54 463 54 q 750 99 650 54 q 927 220 850 144 q 1050 394 1004 296 q 1096 599 1096 493 q 1069 740 1096 675 q 994 851 1042 804 q 880 925 946 899 q 736 951 814 951 m 749 1031 q 921 999 842 1031 q 1056 913 1000 968 q 1144 782 1113 858 q 1176 614 1176 706 q 1122 375 1176 490 q 976 171 1067 260 q 769 28 886 82 q 525 -25 651 -25 q 353 6 432 -25 q 218 93 275 38 q 129 225 161 149 q 97 392 97 301 q 151 631 97 515 q 297 835 206 746 q 505 977 388 924 q 749 1031 622 1031 z "},"ª":{"ha":338,"x_min":144,"x_max":472,"o":"m 156 519 q 171 532 157 532 l 379 532 q 389 519 389 532 l 378 467 q 363 454 375 454 l 154 454 q 144 467 144 454 l 156 519 m 378 911 q 358 933 378 933 q 342 927 350 933 q 332 911 335 921 l 276 650 l 276 638 q 294 619 276 619 q 322 650 317 619 l 378 911 m 468 1008 q 472 1004 472 1008 l 472 1003 l 472 1000 l 471 999 l 381 575 q 367 564 378 564 l 322 564 l 322 596 q 253 556 299 556 q 210 570 225 556 q 194 611 194 585 l 196 632 l 265 957 q 275 976 267 967 q 294 994 283 986 q 317 1008 306 1003 q 340 1014 329 1014 q 382 990 367 1014 l 385 985 q 390 975 389 978 q 390 969 390 972 l 407 1008 l 468 1008 z "},"«":{"ha":671,"x_min":97,"x_max":778,"o":"m 469 519 q 486 533 474 531 l 765 608 q 778 597 778 610 l 764 533 q 749 517 758 518 q 744 515 746 515 q 736 513 742 515 l 725 507 q 715 503 718 504 q 703 497 713 501 q 685 490 694 494 q 651 476 675 486 q 571 442 601 454 q 518 422 540 429 q 706 331 572 397 q 708 329 707 329 q 717 318 717 326 l 717 315 l 717 313 l 704 249 q 686 238 697 236 l 439 313 q 428 325 428 314 l 428 326 l 449 424 l 469 519 m 139 519 q 156 533 143 531 l 435 608 q 447 597 447 610 l 433 533 q 418 517 428 518 q 413 515 415 515 q 406 513 411 515 l 394 507 q 356 492 376 500 q 321 476 336 483 q 240 442 271 454 q 188 422 210 429 q 375 331 242 397 q 378 329 376 329 q 386 318 386 326 l 386 315 l 386 313 l 374 249 q 356 238 367 236 l 108 313 q 97 325 97 314 l 97 326 l 118 424 l 139 519 z "},"¬":{"ha":592,"x_min":143,"x_max":689,"o":"m 160 526 q 143 540 143 526 l 143 546 l 163 635 q 188 654 167 654 l 674 654 q 689 640 689 654 q 688 633 689 636 l 626 342 q 603 322 624 322 l 514 322 q 499 336 499 322 l 499 342 l 538 526 l 160 526 z "},"­":{"ha":499,"x_min":93,"x_max":553,"o":"m 536 417 q 553 403 553 417 q 551 397 553 400 l 533 308 q 510 289 531 289 l 110 289 q 93 303 93 289 l 93 308 l 111 397 q 136 417 115 417 l 536 417 z "},"®":{"ha":1061,"x_min":97,"x_max":1176,"o":"m 736 951 q 526 906 628 951 q 348 785 425 861 q 224 612 271 710 q 178 408 178 514 q 205 265 178 331 q 280 153 232 200 q 395 81 328 107 q 542 54 463 54 q 750 99 650 54 q 927 220 850 144 q 1050 394 1004 296 q 1096 599 1096 493 q 1069 740 1096 675 q 994 851 1042 804 q 880 925 946 899 q 736 951 814 951 m 749 1031 q 921 999 842 1031 q 1056 913 1000 968 q 1144 782 1113 858 q 1176 614 1176 706 q 1122 375 1176 490 q 976 171 1067 260 q 769 28 886 82 q 525 -25 651 -25 q 353 6 432 -25 q 218 93 275 38 q 129 225 161 149 q 97 392 97 301 q 151 631 97 515 q 297 835 206 746 q 505 977 388 924 q 749 1031 622 1031 m 533 150 q 515 136 531 136 l 442 136 q 431 147 431 136 l 431 150 l 582 863 q 592 875 586 875 l 751 875 q 815 851 790 875 q 840 788 840 826 q 838 763 840 776 l 803 600 q 778 556 797 575 q 731 528 758 536 q 775 475 775 519 q 775 468 775 471 q 772 458 775 465 l 703 136 l 629 136 q 606 168 606 136 q 606 181 606 174 q 608 196 607 189 l 660 432 q 661 444 661 435 q 636 467 661 467 l 601 467 l 533 150 m 647 557 q 685 572 672 557 q 689 580 688 576 q 692 590 690 583 q 697 610 694 597 q 704 644 700 622 q 710 671 707 658 q 715 696 713 683 l 722 726 q 726 747 724 743 q 728 754 728 750 q 722 771 728 764 q 706 778 715 778 l 668 778 l 621 557 l 647 557 z "},"¯":{"ha":563,"x_min":214,"x_max":751,"o":"m 736 918 q 722 903 732 903 l 224 903 q 214 918 214 903 l 229 988 q 244 1003 233 1003 l 743 1003 q 751 988 751 1003 l 736 918 z "},"°":{"ha":379,"x_min":231,"x_max":546,"o":"m 408 1028 q 367 1019 388 1028 q 332 995 347 1010 q 307 961 317 981 q 297 922 297 942 q 317 870 297 890 q 369 850 338 850 q 410 859 390 850 q 445 883 429 868 q 470 918 461 899 q 479 957 479 938 q 460 1008 479 989 q 408 1028 440 1028 m 421 1094 q 511 1060 476 1094 q 546 971 546 1025 q 530 901 546 935 q 488 842 514 868 q 427 800 461 815 q 357 785 393 785 q 266 819 301 785 q 231 908 231 854 q 247 976 231 943 q 290 1036 263 1010 q 351 1078 317 1063 q 421 1094 385 1094 z "},"±":{"ha":507,"x_min":50,"x_max":581,"o":"m 494 218 q 511 204 511 218 q 510 199 511 200 l 490 110 q 467 90 488 90 l 67 90 q 50 104 50 90 l 50 110 l 69 199 q 94 218 74 218 l 494 218 m 136 417 q 119 431 119 417 l 119 436 l 139 525 q 164 544 143 544 l 300 544 l 329 682 q 353 703 333 703 l 442 703 q 458 688 458 703 l 458 686 q 458 684 458 685 q 457 682 457 683 l 428 544 l 564 544 q 581 531 581 544 q 579 525 581 526 l 560 436 q 536 417 557 417 l 400 417 l 372 282 q 349 263 369 263 l 260 263 q 244 276 244 263 l 244 282 l 272 417 l 136 417 z "},"²":{"ha":385,"x_min":96,"x_max":493,"o":"m 372 268 l 353 179 q 340 171 350 171 l 96 171 l 118 275 q 160 383 128 322 q 236 503 192 444 l 306 590 q 329 621 321 610 q 342 639 338 632 q 349 649 347 646 q 354 658 351 653 q 356 665 356 661 q 358 671 357 668 l 363 690 l 388 806 q 383 826 390 817 q 364 836 375 836 q 341 819 351 836 q 324 775 331 803 l 303 678 l 203 678 l 232 814 q 252 863 238 840 q 288 901 267 885 q 333 928 308 918 q 385 938 358 938 q 465 910 438 938 q 493 832 493 883 q 492 814 493 818 l 461 672 q 417 588 447 636 q 338 481 386 540 q 263 372 293 425 q 222 272 233 318 l 222 268 l 372 268 z "},"³":{"ha":326,"x_min":92,"x_max":456,"o":"m 190 294 l 190 288 q 214 264 190 264 q 251 300 244 264 l 290 481 q 292 492 292 483 q 274 514 292 511 l 249 514 l 272 626 l 297 626 q 315 638 306 626 q 326 665 324 650 l 356 801 q 357 814 357 804 q 336 839 357 839 q 311 828 322 839 q 297 801 300 817 l 272 681 l 175 681 l 201 808 q 256 904 214 868 q 356 940 299 940 q 430 914 404 940 q 456 838 456 888 l 456 822 l 454 818 l 454 817 l 424 668 q 399 615 418 639 q 354 578 381 590 q 381 560 369 578 q 394 511 392 543 l 351 308 q 338 271 349 294 q 315 232 326 247 q 194 164 268 164 q 119 192 146 164 q 92 271 92 219 l 93 294 l 119 424 l 217 424 l 190 294 z "},"´":{"ha":271,"x_min":211,"x_max":467,"o":"m 344 1085 q 361 1099 349 1099 l 457 1099 q 467 1093 467 1099 q 465 1086 467 1089 l 464 1085 l 304 819 q 285 807 297 807 l 221 807 q 211 815 211 807 q 213 822 211 821 l 344 1085 z "},"µ":{"ha":429,"x_min":1,"x_max":535,"o":"m 194 722 q 218 742 199 742 l 310 742 q 322 735 317 742 q 325 722 328 729 l 206 158 q 203 145 204 151 q 203 133 203 139 q 235 97 203 97 q 288 163 274 97 l 407 722 q 431 742 411 742 l 517 742 q 529 735 524 742 q 532 722 535 729 l 382 19 q 360 0 378 0 l 279 0 l 269 38 q 228 7 260 22 q 168 -14 197 -8 l 133 -182 q 110 -201 128 -201 l 18 -201 q 6 -195 11 -201 q 3 -182 1 -189 l 74 153 l 194 722 z "},"¶":{"ha":493,"x_min":149,"x_max":688,"o":"m 617 957 l 414 0 l 363 0 l 565 957 l 499 957 l 296 0 l 244 0 l 338 439 l 264 439 q 219 449 240 439 q 183 477 199 460 q 158 518 167 494 q 149 568 149 542 q 149 582 149 575 q 151 596 150 589 l 204 849 q 290 972 222 935 q 355 999 322 990 q 415 1008 388 1008 l 688 1008 l 676 957 l 617 957 z "},"·":{"ha":274,"x_min":139,"x_max":308,"o":"m 240 503 q 289 484 269 503 q 308 436 308 465 q 300 399 308 417 q 277 367 292 381 q 244 346 263 354 q 204 338 225 338 q 158 356 176 338 q 139 403 139 375 q 147 440 139 422 q 170 472 156 458 q 203 494 185 486 q 240 503 221 503 z "},"¸":{"ha":333,"x_min":47,"x_max":257,"o":"m 208 -25 q 257 -100 257 -47 q 246 -158 257 -129 q 189 -225 228 -206 q 142 -240 169 -235 q 101 -242 114 -244 q 93 -240 97 -240 l 47 -240 l 68 -142 q 99 -147 86 -146 q 122 -149 111 -149 q 161 -141 150 -149 q 172 -115 172 -133 q 160 -97 172 -103 q 113 -83 149 -90 l 131 4 l 214 4 l 208 -25 z "},"¹":{"ha":263,"x_min":154,"x_max":422,"o":"m 181 711 l 208 839 l 333 929 l 419 929 q 422 925 422 929 q 421 921 422 921 l 421 919 l 265 183 q 260 173 263 175 q 254 171 258 171 l 158 171 q 154 182 154 171 l 154 189 l 282 785 l 181 711 z "},"º":{"ha":338,"x_min":144,"x_max":460,"o":"m 156 519 q 171 532 157 532 l 379 532 q 389 519 389 532 l 378 467 q 363 454 375 454 l 154 454 q 144 467 144 454 l 156 519 m 381 919 q 382 931 382 924 q 363 950 382 950 q 333 919 340 950 l 281 663 q 278 651 278 656 q 278 643 278 647 q 294 622 278 622 q 326 663 318 622 l 381 919 m 263 935 q 375 1018 281 1018 q 460 947 460 1018 q 458 932 460 936 l 399 647 q 358 582 390 607 q 283 557 326 557 q 200 626 200 557 q 200 637 200 633 q 203 654 200 640 l 263 935 z "},"»":{"ha":671,"x_min":82,"x_max":763,"o":"m 389 326 l 389 325 q 372 313 389 314 l 94 238 l 90 236 q 82 244 82 236 l 82 249 l 94 313 q 111 329 100 328 l 149 344 q 217 373 189 361 q 265 393 244 385 q 303 408 286 401 q 340 422 321 415 q 277 453 315 433 q 176 504 239 472 l 168 508 l 161 513 l 154 515 l 153 517 l 151 517 q 142 531 139 519 l 142 533 l 156 597 q 169 610 158 610 q 174 608 171 610 l 419 533 q 431 521 432 533 l 431 519 l 410 424 l 389 326 m 719 326 l 719 325 q 703 313 719 314 l 425 238 l 421 236 q 413 244 413 236 l 413 249 l 425 313 q 442 329 431 328 l 479 344 q 547 373 519 361 q 596 393 575 385 q 634 408 617 401 q 671 422 651 415 q 608 453 646 433 q 507 504 569 472 l 499 508 l 492 513 l 485 515 l 483 517 l 482 517 q 472 531 469 519 l 472 533 l 486 597 q 500 610 489 610 q 504 608 501 610 l 750 533 q 761 521 763 533 l 761 519 l 740 424 l 719 326 z "},"¼":{"ha":915,"x_min":126,"x_max":949,"o":"m 776 142 l 628 142 q 621 151 621 143 l 644 263 l 832 758 l 925 758 l 739 242 l 797 242 l 850 486 l 949 486 l 896 242 l 932 242 l 911 139 l 875 139 l 847 13 q 838 0 844 0 l 758 0 q 749 10 749 0 l 776 142 m 849 1011 q 857 1001 857 1011 q 851 992 856 999 l 233 -208 q 210 -225 224 -225 l 133 -225 q 126 -210 126 -225 l 128 -207 l 129 -204 q 131 -199 129 -200 l 131 -197 q 424 368 278 86 q 718 939 569 650 q 744 992 731 957 q 763 1011 753 1011 l 849 1011 m 176 711 l 204 839 l 329 929 l 415 929 q 418 925 418 929 l 418 924 q 417 922 417 924 l 417 919 l 261 183 q 250 171 258 171 l 154 171 q 149 182 149 171 l 149 183 q 150 189 149 186 l 278 785 l 176 711 z "},"½":{"ha":907,"x_min":126,"x_max":1013,"o":"m 890 97 l 872 8 q 860 0 869 0 l 615 0 l 636 104 q 680 215 649 156 q 756 332 711 274 l 829 426 q 858 465 850 454 q 868 478 865 475 q 876 494 874 488 q 882 519 878 501 l 907 635 q 902 656 910 646 q 883 665 894 665 q 860 649 871 665 q 843 604 850 632 l 822 507 l 722 507 l 751 643 q 772 692 757 669 q 807 731 786 714 q 853 757 828 747 q 904 767 878 767 q 985 740 957 767 q 1013 661 1013 713 q 1011 643 1013 647 l 981 501 q 857 310 953 429 q 783 201 813 254 q 742 101 753 147 l 740 97 l 890 97 m 849 1011 q 857 1001 857 1011 q 851 992 856 999 l 233 -208 q 210 -225 224 -225 l 133 -225 q 126 -210 126 -225 l 128 -207 l 129 -204 q 131 -199 129 -200 l 131 -197 q 424 368 278 86 q 718 939 569 650 q 744 992 731 957 q 763 1011 753 1011 l 849 1011 m 176 711 l 204 839 l 329 929 l 415 929 q 418 925 418 929 l 418 924 q 417 922 417 924 l 417 919 l 261 183 q 250 171 258 171 l 154 171 q 149 182 149 171 l 149 183 q 150 189 149 186 l 278 785 l 176 711 z "},"¾":{"ha":950,"x_min":88,"x_max":983,"o":"m 882 13 q 872 0 879 0 l 793 0 q 783 10 785 0 l 811 142 l 663 142 q 656 150 656 144 l 656 151 l 679 263 l 867 758 l 960 758 l 774 242 l 832 242 l 885 486 l 983 486 l 931 242 l 967 242 l 946 139 l 910 139 l 882 13 m 169 -197 q 294 43 232 -76 q 418 283 356 163 q 619 669 536 507 q 757 939 701 831 q 770 967 764 954 q 783 992 776 981 q 803 1011 793 1011 l 888 1011 q 896 1001 896 1011 q 894 997 894 999 q 890 992 893 994 l 272 -208 q 249 -225 265 -225 l 172 -225 q 165 -210 165 -225 l 167 -207 q 168 -203 168 -206 l 169 -200 l 169 -197 m 186 294 l 186 288 q 210 264 186 264 q 247 300 240 264 l 286 481 q 288 492 288 483 q 269 514 288 511 l 244 514 l 268 626 l 293 626 q 310 638 301 626 q 322 665 319 650 l 351 801 q 353 814 353 804 q 332 839 353 839 q 307 828 318 839 q 293 801 296 817 l 268 681 l 171 681 l 197 808 q 252 904 210 868 q 351 940 294 940 q 426 914 400 940 q 451 838 451 888 l 451 822 l 450 818 l 450 817 l 419 668 q 395 615 414 639 q 350 578 376 590 q 376 560 365 578 q 390 511 388 543 l 347 308 q 333 271 344 294 q 311 232 322 247 q 190 164 264 164 q 115 192 142 164 q 88 271 88 219 l 89 294 l 115 424 l 213 424 l 186 294 z "},"¿":{"ha":390,"x_min":-3,"x_max":403,"o":"m 333 751 q 383 733 363 751 q 403 686 403 714 q 394 649 403 667 q 370 617 385 632 q 337 594 356 603 q 299 586 318 586 q 253 604 271 586 q 235 651 235 622 q 265 722 235 692 q 333 751 294 751 m 328 469 q 344 460 342 469 l 328 350 l 326 342 l 326 340 q 334 295 326 325 q 364 197 342 265 q 375 115 375 160 q 372 61 375 92 q 364 8 369 31 l 329 -154 q 306 -204 324 -181 q 260 -245 288 -228 q 200 -272 233 -262 q 132 -282 167 -282 q 33 -250 69 -282 q -3 -160 -3 -218 l -3 -150 l 36 44 l 165 44 l 132 -117 l 132 -126 q 160 -154 132 -154 q 191 -145 178 -154 q 207 -121 204 -136 l 239 28 q 240 36 240 31 q 240 49 240 42 q 215 181 240 101 q 199 252 204 217 q 193 329 193 288 q 196 390 193 361 q 206 453 199 419 l 206 456 q 224 469 208 467 l 293 469 l 328 469 z "},"À":{"ha":510,"x_min":29,"x_max":569,"o":"m 432 1367 q 444 1381 432 1381 l 540 1381 q 551 1367 550 1381 l 569 1104 q 556 1089 569 1089 l 492 1089 q 478 1101 478 1089 l 432 1367 m 344 278 q 353 290 350 278 q 355 310 354 301 q 356 327 356 318 q 358 351 357 336 q 363 389 360 365 l 393 700 l 261 290 q 261 279 261 281 q 263 278 261 278 l 344 278 m 214 149 l 165 15 q 147 0 163 0 l 35 0 q 29 11 29 0 l 379 982 q 406 1011 386 1011 l 518 1011 q 527 1006 525 1011 q 529 986 529 1001 l 529 983 q 528 951 529 975 q 526 883 528 928 q 520 767 524 838 q 511 594 517 697 q 499 353 506 492 q 483 32 493 214 q 485 24 485 29 q 483 15 485 18 q 469 0 481 0 l 349 0 q 338 13 339 0 l 343 149 l 214 149 z "},"Á":{"ha":507,"x_min":29,"x_max":658,"o":"m 499 1099 q 479 1086 492 1086 l 415 1086 q 406 1094 406 1086 q 407 1101 406 1100 l 538 1364 q 553 1378 542 1378 l 650 1378 q 658 1372 658 1378 q 657 1364 658 1367 l 499 1099 m 344 278 q 353 290 350 278 q 355 310 354 301 q 356 327 356 318 q 358 351 357 336 q 363 389 360 365 l 393 700 l 261 290 q 261 279 261 281 q 263 278 261 278 l 344 278 m 214 149 l 165 15 q 147 0 163 0 l 35 0 q 29 11 29 0 l 379 982 q 406 1011 386 1011 l 518 1011 q 527 1006 525 1011 q 529 986 529 1001 l 529 983 q 528 951 529 975 q 526 883 528 928 q 520 767 524 838 q 511 594 517 697 q 499 353 506 492 q 483 32 493 214 q 485 24 485 29 q 483 15 485 18 q 469 0 481 0 l 349 0 q 338 13 339 0 l 343 149 l 214 149 z "},"Â":{"ha":513,"x_min":29,"x_max":664,"o":"m 636 1381 q 646 1367 646 1381 l 664 1104 q 650 1089 664 1089 l 586 1089 q 572 1101 572 1089 l 564 1136 q 536 1247 546 1204 q 522 1311 526 1289 q 476 1238 507 1285 q 400 1125 444 1192 l 394 1115 l 388 1106 q 385 1101 386 1103 q 365 1089 378 1089 l 301 1089 q 292 1097 292 1089 q 293 1104 292 1103 l 425 1367 q 440 1381 429 1381 l 539 1381 l 636 1381 m 344 278 q 353 290 350 278 q 355 310 354 301 q 356 327 356 318 q 358 351 357 336 q 363 389 360 365 l 393 700 l 261 290 q 261 279 261 281 q 263 278 261 278 l 344 278 m 214 149 l 165 15 q 147 0 163 0 l 35 0 q 29 11 29 0 l 379 982 q 406 1011 386 1011 l 518 1011 q 527 1006 525 1011 q 529 986 529 1001 l 529 983 q 528 951 529 975 q 526 883 528 928 q 520 767 524 838 q 511 594 517 697 q 499 353 506 492 q 483 32 493 214 q 485 24 485 29 q 483 15 485 18 q 469 0 481 0 l 349 0 q 338 13 339 0 l 343 149 l 214 149 z "},"Ã":{"ha":515,"x_min":29,"x_max":685,"o":"m 326 1214 q 381 1235 358 1229 q 433 1242 403 1242 q 474 1238 457 1242 q 524 1219 490 1235 q 560 1208 546 1211 q 590 1204 575 1204 q 610 1206 601 1204 q 629 1210 619 1207 q 652 1220 639 1214 q 685 1238 665 1226 l 657 1106 q 624 1088 636 1094 q 601 1078 611 1082 q 583 1074 592 1075 q 564 1072 575 1072 q 531 1075 544 1072 q 481 1093 517 1078 q 441 1105 457 1101 q 404 1108 425 1108 q 353 1102 375 1108 q 299 1081 331 1096 l 326 1214 m 344 278 q 353 290 350 278 q 355 310 354 301 q 356 327 356 318 q 358 351 357 336 q 363 389 360 365 l 393 700 l 261 290 q 261 279 261 281 q 263 278 261 278 l 344 278 m 214 149 l 165 15 q 147 0 163 0 l 35 0 q 29 11 29 0 l 379 982 q 406 1011 386 1011 l 518 1011 q 527 1006 525 1011 q 529 986 529 1001 l 529 983 q 528 951 529 975 q 526 883 528 928 q 520 767 524 838 q 511 594 517 697 q 499 353 506 492 q 483 32 493 214 q 485 24 485 29 q 483 15 485 18 q 469 0 481 0 l 349 0 q 338 13 339 0 l 343 149 l 214 149 z "},"Ä":{"ha":504,"x_min":29,"x_max":667,"o":"m 415 1251 q 462 1233 443 1251 q 481 1186 481 1214 q 472 1151 481 1168 q 451 1122 464 1135 q 419 1101 438 1108 q 383 1093 401 1093 q 338 1111 356 1093 q 319 1157 319 1129 q 328 1192 319 1175 q 349 1223 336 1210 q 380 1244 363 1236 q 415 1251 397 1251 m 601 1251 q 648 1233 629 1251 q 667 1186 667 1214 q 658 1151 667 1168 q 637 1122 650 1135 q 606 1101 624 1108 q 569 1093 588 1093 q 524 1111 542 1093 q 506 1157 506 1129 q 514 1192 506 1175 q 535 1223 522 1210 q 566 1244 549 1236 q 601 1251 583 1251 m 344 278 q 353 290 350 278 q 355 310 354 301 q 356 327 356 318 q 358 351 357 336 q 363 389 360 365 l 393 700 l 261 290 q 261 279 261 281 q 263 278 261 278 l 344 278 m 214 149 l 165 15 q 147 0 163 0 l 35 0 q 29 11 29 0 l 379 982 q 406 1011 386 1011 l 518 1011 q 527 1006 525 1011 q 529 986 529 1001 l 529 983 q 528 951 529 975 q 526 883 528 928 q 520 767 524 838 q 511 594 517 697 q 499 353 506 492 q 483 32 493 214 q 485 24 485 29 q 483 15 485 18 q 469 0 481 0 l 349 0 q 338 13 339 0 l 343 149 l 214 149 z "},"Å":{"ha":515,"x_min":29,"x_max":622,"o":"m 528 1321 q 596 1295 569 1321 q 622 1229 622 1269 q 610 1174 622 1200 q 577 1127 597 1147 q 531 1094 557 1107 q 476 1082 504 1082 q 406 1110 433 1082 q 379 1181 379 1138 q 392 1232 379 1207 q 425 1277 404 1257 q 473 1309 446 1297 q 528 1321 500 1321 m 511 1250 q 468 1233 486 1250 q 450 1190 450 1215 q 492 1153 450 1153 q 534 1170 517 1153 q 551 1214 551 1188 q 511 1250 551 1250 m 344 278 q 353 290 350 278 q 355 310 354 301 q 356 327 356 318 q 358 351 357 336 q 363 389 360 365 l 393 700 l 261 290 q 261 279 261 281 q 263 278 261 278 l 344 278 m 214 149 l 165 15 q 147 0 163 0 l 35 0 q 29 11 29 0 l 379 982 q 406 1011 386 1011 l 518 1011 q 527 1006 525 1011 q 529 986 529 1001 l 529 983 q 528 951 529 975 q 526 883 528 928 q 520 767 524 838 q 511 594 517 697 q 499 353 506 492 q 483 32 493 214 q 485 24 485 29 q 483 15 485 18 q 469 0 481 0 l 349 0 q 338 13 339 0 l 343 149 l 214 149 z "},"Æ":{"ha":696,"x_min":46,"x_max":874,"o":"m 321 278 l 418 278 l 507 696 l 321 278 m 689 126 l 663 0 l 360 0 l 390 146 l 260 146 l 189 0 l 46 0 l 536 1011 l 874 1011 l 846 876 l 697 876 l 632 574 l 782 574 l 754 439 l 606 439 l 539 126 l 689 126 z "},"Ç":{"ha":426,"x_min":64,"x_max":567,"o":"m 242 -25 q 289 -100 289 -47 q 286 -128 289 -112 q 278 -158 283 -144 q 221 -225 260 -206 q 174 -239 201 -233 q 133 -242 146 -244 q 126 -240 131 -240 l 81 -240 l 101 -142 q 131 -147 119 -146 q 156 -149 143 -149 q 194 -141 183 -149 q 206 -115 206 -133 q 194 -97 206 -103 q 146 -83 182 -90 l 164 4 l 247 4 l 242 -25 m 456 375 q 464 360 464 372 l 464 356 l 424 165 q 408 125 421 150 q 383 83 396 100 q 203 -11 317 -11 q 64 129 64 -11 q 74 210 64 169 l 206 831 q 234 909 214 874 q 283 970 254 944 q 346 1010 311 996 q 418 1024 381 1024 q 529 985 492 1024 q 567 871 567 946 q 566 844 567 858 q 563 819 565 829 l 536 693 q 519 678 533 678 l 404 678 q 400 682 400 678 q 401 690 400 688 l 429 818 l 429 826 q 390 875 429 875 q 354 858 372 875 q 332 818 336 842 l 194 174 q 193 164 193 171 q 233 125 193 125 q 270 138 254 125 q 292 174 286 151 l 331 356 q 347 375 333 375 l 456 375 z "},"È":{"ha":335,"x_min":31,"x_max":524,"o":"m 360 1367 q 372 1381 360 1381 l 468 1381 q 479 1367 479 1381 l 497 1104 q 483 1089 497 1089 l 419 1089 q 406 1101 407 1089 l 360 1367 m 369 890 q 354 878 357 890 l 290 579 l 432 579 l 403 443 l 261 443 l 197 140 l 197 138 q 207 129 197 129 l 336 129 l 310 0 l 47 0 q 31 17 31 0 l 31 19 l 239 994 q 251 1011 243 1011 l 524 1011 l 499 890 l 369 890 z "},"É":{"ha":338,"x_min":31,"x_max":558,"o":"m 399 1099 q 379 1086 392 1086 l 315 1086 q 306 1096 306 1086 l 307 1101 l 438 1364 q 453 1378 442 1378 l 550 1378 q 558 1372 558 1378 q 557 1364 558 1365 l 399 1099 m 369 890 q 354 878 357 890 l 290 579 l 432 579 l 403 443 l 261 443 l 197 140 l 197 138 q 207 129 197 129 l 336 129 l 310 0 l 47 0 q 31 17 31 0 l 31 19 l 239 994 q 251 1011 243 1011 l 524 1011 l 499 890 l 369 890 z "},"Ê":{"ha":390,"x_min":54,"x_max":611,"o":"m 583 1381 q 593 1367 593 1381 l 611 1104 q 597 1089 611 1089 l 533 1089 q 519 1101 521 1089 l 511 1136 q 484 1244 493 1206 q 469 1311 475 1283 q 448 1277 458 1293 q 424 1240 438 1261 q 391 1190 411 1219 q 342 1115 371 1160 q 334 1106 336 1108 q 329 1097 332 1103 q 313 1089 324 1089 l 249 1089 q 239 1099 239 1089 l 240 1104 l 372 1367 q 388 1381 376 1381 l 486 1381 l 583 1381 m 393 890 q 378 878 381 890 l 314 579 l 456 579 l 426 443 l 285 443 l 221 140 l 221 138 q 231 129 221 129 l 360 129 l 333 0 l 71 0 q 54 17 54 0 l 54 19 l 263 994 q 275 1011 267 1011 l 547 1011 l 522 890 l 393 890 z "},"Ë":{"ha":338,"x_min":31,"x_max":589,"o":"m 407 1183 q 399 1151 407 1167 q 376 1122 390 1135 q 345 1101 363 1108 q 310 1093 328 1093 q 264 1110 282 1093 q 246 1154 246 1128 q 275 1222 246 1193 q 342 1251 304 1251 q 388 1233 369 1251 q 407 1186 407 1214 l 407 1183 m 589 1183 q 581 1151 589 1167 q 558 1122 572 1135 q 527 1101 544 1108 q 492 1093 510 1093 q 446 1110 464 1093 q 428 1154 428 1128 q 457 1222 428 1193 q 524 1251 486 1251 q 570 1233 551 1251 q 589 1186 589 1214 l 589 1183 m 369 890 q 354 878 357 890 l 290 579 l 432 579 l 403 443 l 261 443 l 197 140 l 197 138 q 207 129 197 129 l 336 129 l 310 0 l 47 0 q 31 17 31 0 l 31 19 l 239 994 q 251 1011 243 1011 l 524 1011 l 499 890 l 369 890 z "},"Ì":{"ha":200,"x_min":33,"x_max":429,"o":"m 292 1367 q 304 1381 292 1381 l 400 1381 q 411 1367 411 1381 l 429 1104 q 415 1089 429 1089 l 351 1089 q 338 1101 339 1089 l 292 1367 m 174 19 q 151 0 169 0 l 50 0 q 33 17 33 0 l 33 19 l 242 994 q 254 1011 246 1011 l 375 1011 q 383 1001 383 1011 q 382 994 383 997 l 174 19 z "},"Í":{"ha":200,"x_min":33,"x_max":489,"o":"m 328 1100 q 308 1088 321 1088 l 244 1088 q 235 1097 235 1088 l 236 1103 l 367 1365 q 383 1379 372 1379 l 481 1379 q 489 1374 489 1379 q 486 1365 489 1371 l 328 1100 m 174 19 q 151 0 169 0 l 50 0 q 33 17 33 0 l 33 19 l 242 994 q 254 1011 246 1011 l 375 1011 q 383 1001 383 1011 q 382 994 383 997 l 174 19 z "},"Î":{"ha":376,"x_min":122,"x_max":606,"o":"m 578 1381 q 588 1367 588 1381 l 606 1104 q 592 1089 606 1089 l 528 1089 q 514 1101 515 1089 l 506 1136 q 478 1244 488 1206 q 464 1311 469 1283 q 442 1277 453 1293 q 419 1240 432 1261 q 385 1190 406 1219 q 336 1115 365 1160 q 328 1106 331 1108 q 324 1097 326 1103 q 307 1089 318 1089 l 243 1089 q 233 1099 233 1089 l 235 1104 l 367 1367 q 382 1381 371 1381 l 481 1381 l 578 1381 m 263 19 q 240 0 258 0 l 139 0 q 122 17 122 0 l 122 19 l 331 994 q 343 1011 335 1011 l 464 1011 q 472 1001 472 1011 q 471 994 472 997 l 263 19 z "},"Ï":{"ha":350,"x_min":106,"x_max":597,"o":"m 411 1183 q 403 1151 411 1167 q 381 1122 394 1135 q 349 1101 367 1108 q 314 1093 332 1093 q 268 1110 286 1093 q 250 1154 250 1128 q 279 1222 250 1193 q 346 1251 308 1251 q 392 1233 374 1251 q 411 1186 411 1214 l 411 1183 m 597 1183 q 589 1151 597 1167 q 567 1122 581 1135 q 535 1101 553 1108 q 500 1093 518 1093 q 454 1110 472 1093 q 436 1154 436 1128 q 465 1222 436 1193 q 532 1251 494 1251 q 578 1233 560 1251 q 597 1186 597 1214 l 597 1183 m 246 19 q 224 0 242 0 l 122 0 q 106 17 106 0 l 106 19 l 314 994 q 326 1011 318 1011 l 447 1011 q 456 1001 456 1011 q 454 994 456 997 l 246 19 z "},"Ð":{"ha":435,"x_min":63,"x_max":606,"o":"m 219 132 q 228 119 217 119 l 268 119 q 300 134 286 119 q 319 172 314 149 l 460 832 l 460 833 q 461 844 461 835 q 429 881 461 881 l 385 881 q 376 872 378 881 l 315 585 l 349 585 q 360 571 360 585 l 335 456 q 318 443 332 443 l 285 443 l 219 132 m 272 990 q 289 1011 276 1011 l 478 1011 q 572 973 539 1011 q 604 864 606 935 l 458 179 q 395 47 440 94 q 288 0 350 0 l 82 0 q 68 6 74 0 q 65 19 63 13 l 156 443 l 118 443 q 106 456 106 443 l 131 571 q 149 585 135 585 l 186 585 l 272 990 z "},"Ñ":{"ha":438,"x_min":28,"x_max":663,"o":"m 304 1214 q 359 1235 336 1229 q 411 1242 382 1242 q 451 1238 435 1242 q 501 1219 468 1235 q 538 1208 524 1211 q 568 1204 553 1204 q 588 1206 579 1204 q 607 1210 597 1207 q 630 1220 617 1214 q 663 1238 643 1226 l 635 1106 q 601 1088 614 1094 q 579 1078 589 1082 q 561 1074 569 1075 q 542 1072 553 1072 q 508 1075 522 1072 q 458 1093 494 1078 q 419 1105 435 1101 q 382 1108 403 1108 q 331 1102 353 1108 q 276 1081 308 1096 l 304 1214 m 604 1011 q 615 1004 611 1011 q 615 990 618 997 l 408 19 q 386 0 404 0 l 297 0 l 268 531 l 156 0 l 47 0 q 33 6 39 0 q 31 19 28 13 l 238 990 q 258 1011 242 1011 l 350 1011 l 375 449 l 494 1011 l 604 1011 z "},"Ò":{"ha":438,"x_min":58,"x_max":586,"o":"m 393 1367 q 406 1381 393 1381 l 503 1381 q 513 1367 513 1381 l 531 1104 q 517 1089 531 1089 l 453 1089 q 439 1101 439 1089 l 393 1367 m 433 817 q 435 828 435 824 q 436 836 436 832 q 400 871 436 871 q 344 817 356 871 l 208 176 q 206 164 206 168 q 206 154 206 160 q 239 119 206 119 q 276 135 260 119 q 297 176 292 150 l 433 817 m 201 835 q 231 908 210 874 q 283 969 253 943 q 349 1009 313 994 q 425 1024 386 1024 q 541 981 496 1024 q 586 872 586 939 q 582 835 586 853 l 440 167 q 414 108 435 140 q 365 47 393 75 q 208 -18 297 -18 q 83 46 119 -18 q 65 91 71 67 q 58 139 58 115 q 63 181 58 161 l 201 835 z "},"Ó":{"ha":438,"x_min":58,"x_max":635,"o":"m 514 1367 q 531 1381 519 1381 l 626 1381 q 635 1375 635 1381 q 633 1367 635 1369 l 474 1101 q 454 1089 467 1089 l 390 1089 q 381 1097 381 1089 q 382 1104 381 1103 l 514 1367 m 433 817 q 435 828 435 824 q 436 836 436 832 q 400 871 436 871 q 344 817 356 871 l 208 176 q 206 164 206 168 q 206 154 206 160 q 239 119 206 119 q 276 135 260 119 q 297 176 292 150 l 433 817 m 201 835 q 231 908 210 874 q 283 969 253 943 q 349 1009 313 994 q 425 1024 386 1024 q 541 981 496 1024 q 586 872 586 939 q 582 835 586 853 l 440 167 q 414 108 435 140 q 365 47 393 75 q 208 -18 297 -18 q 83 46 119 -18 q 65 91 71 67 q 58 139 58 115 q 63 181 58 161 l 201 835 z "},"Ô":{"ha":435,"x_min":58,"x_max":638,"o":"m 399 1367 q 415 1381 404 1381 l 610 1381 q 619 1367 619 1381 l 638 1104 q 624 1089 638 1089 l 560 1089 q 546 1101 546 1089 l 538 1136 q 510 1247 519 1204 q 496 1311 500 1289 q 449 1238 481 1285 q 374 1125 418 1192 l 368 1115 l 361 1106 q 358 1101 360 1103 q 339 1089 351 1089 l 275 1089 q 265 1097 265 1089 q 267 1104 265 1103 l 399 1367 m 433 817 q 435 828 435 824 q 436 836 436 832 q 400 871 436 871 q 344 817 356 871 l 208 176 q 206 164 206 168 q 206 154 206 160 q 239 119 206 119 q 276 135 260 119 q 297 176 292 150 l 433 817 m 201 835 q 231 908 210 874 q 283 969 253 943 q 349 1009 313 994 q 425 1024 386 1024 q 541 981 496 1024 q 586 872 586 939 q 582 835 586 853 l 440 167 q 414 108 435 140 q 365 47 393 75 q 208 -18 297 -18 q 83 46 119 -18 q 65 91 71 67 q 58 139 58 115 q 63 181 58 161 l 201 835 z "},"Õ":{"ha":435,"x_min":58,"x_max":658,"o":"m 300 1214 q 355 1235 332 1229 q 407 1242 378 1242 q 447 1238 431 1242 q 497 1219 464 1235 q 534 1208 519 1211 q 564 1204 549 1204 q 584 1206 575 1204 q 603 1210 593 1207 q 626 1220 613 1214 q 658 1238 639 1226 l 631 1106 q 598 1088 611 1094 q 575 1078 585 1082 q 557 1074 565 1075 q 538 1072 549 1072 q 504 1075 518 1072 q 454 1093 490 1078 q 415 1105 431 1101 q 379 1108 399 1108 q 326 1102 349 1108 q 272 1081 304 1096 l 300 1214 m 433 817 q 435 828 435 824 q 436 836 436 832 q 400 871 436 871 q 344 817 356 871 l 208 176 q 206 164 206 168 q 206 154 206 160 q 239 119 206 119 q 276 135 260 119 q 297 176 292 150 l 433 817 m 201 835 q 231 908 210 874 q 283 969 253 943 q 349 1009 313 994 q 425 1024 386 1024 q 541 981 496 1024 q 586 872 586 939 q 582 835 586 853 l 440 167 q 414 108 435 140 q 365 47 393 75 q 208 -18 297 -18 q 83 46 119 -18 q 65 91 71 67 q 58 139 58 115 q 63 181 58 161 l 201 835 z "},"Ö":{"ha":429,"x_min":58,"x_max":640,"o":"m 389 1251 q 435 1233 417 1251 q 454 1186 454 1214 q 446 1151 454 1168 q 424 1122 438 1135 q 393 1101 411 1108 q 357 1093 375 1093 q 311 1111 329 1093 q 293 1157 293 1129 q 301 1192 293 1175 q 323 1222 310 1208 q 353 1243 336 1235 q 389 1251 371 1251 m 575 1251 q 622 1233 603 1251 q 640 1186 640 1214 q 632 1151 640 1168 q 610 1122 624 1135 q 579 1101 597 1108 q 543 1093 561 1093 q 497 1111 515 1093 q 479 1157 479 1129 q 488 1192 479 1175 q 509 1222 496 1208 q 540 1243 522 1235 q 575 1251 557 1251 m 433 817 q 435 828 435 824 q 436 836 436 832 q 400 871 436 871 q 344 817 356 871 l 208 176 q 206 164 206 168 q 206 154 206 160 q 239 119 206 119 q 276 135 260 119 q 297 176 292 150 l 433 817 m 201 835 q 231 908 210 874 q 283 969 253 943 q 349 1009 313 994 q 425 1024 386 1024 q 541 981 496 1024 q 586 872 586 939 q 582 835 586 853 l 440 167 q 414 108 435 140 q 365 47 393 75 q 208 -18 297 -18 q 83 46 119 -18 q 65 91 71 67 q 58 139 58 115 q 63 181 58 161 l 201 835 z "},"×":{"ha":474,"x_min":118,"x_max":522,"o":"m 304 324 l 194 232 l 118 328 l 229 421 l 161 508 l 278 604 l 346 517 l 446 599 l 522 503 l 422 421 l 492 333 l 374 236 l 304 324 z "},"Ø":{"ha":438,"x_min":58,"x_max":586,"o":"m 171 -15 q 89 36 119 -6 q 58 139 58 78 q 63 181 58 160 l 201 835 q 228 901 210 869 q 272 958 246 933 q 328 1000 297 983 q 392 1021 360 1017 l 421 1163 q 436 1174 424 1174 l 494 1174 q 504 1163 507 1174 l 474 1018 q 557 964 528 1001 q 586 874 586 926 q 582 835 586 856 l 440 167 q 413 104 432 135 q 367 49 393 74 q 313 8 342 25 q 254 -14 283 -10 l 225 -151 q 211 -162 222 -162 l 153 -162 q 142 -151 142 -162 l 171 -15 m 433 817 q 435 828 435 824 q 436 836 436 832 q 400 871 436 871 q 344 817 356 871 l 208 176 q 206 164 206 168 q 206 154 206 160 q 239 119 206 119 q 276 135 260 119 q 297 176 292 150 l 433 817 z "},"Ù":{"ha":438,"x_min":64,"x_max":618,"o":"m 414 1367 q 426 1381 414 1381 l 524 1381 q 533 1367 532 1381 l 551 1104 q 538 1089 551 1089 l 474 1089 q 460 1101 460 1089 l 414 1367 m 449 197 q 215 -17 403 -17 q 103 23 143 -17 q 64 138 64 63 q 66 165 64 151 q 71 194 68 179 l 240 993 q 254 1011 242 1011 l 368 1011 q 375 1003 375 1011 q 374 996 375 999 l 374 993 l 207 204 q 203 182 204 189 q 201 167 201 175 q 242 118 201 118 q 315 204 296 118 l 482 993 q 496 1011 483 1011 l 611 1011 q 618 1003 618 1011 q 617 994 618 997 l 617 993 l 449 197 z "},"Ú":{"ha":438,"x_min":64,"x_max":629,"o":"m 508 1364 q 525 1378 513 1378 l 621 1378 q 629 1372 629 1378 q 628 1364 629 1368 l 469 1099 q 450 1086 463 1086 l 386 1086 q 375 1094 375 1086 q 378 1101 375 1099 l 508 1364 m 449 197 q 215 -17 403 -17 q 103 23 143 -17 q 64 138 64 63 q 66 165 64 151 q 71 194 68 179 l 240 993 q 254 1011 242 1011 l 368 1011 q 375 1003 375 1011 q 374 996 375 999 l 374 993 l 207 204 q 203 182 204 189 q 201 167 201 175 q 242 118 201 118 q 315 204 296 118 l 482 993 q 496 1011 483 1011 l 611 1011 q 618 1003 618 1011 q 617 994 618 997 l 617 993 l 449 197 z "},"Û":{"ha":438,"x_min":64,"x_max":638,"o":"m 399 1367 q 415 1381 403 1381 l 610 1381 q 619 1367 618 1381 l 638 1104 q 624 1089 638 1089 l 560 1089 q 546 1101 546 1089 l 536 1136 q 509 1247 519 1204 q 496 1311 499 1289 q 449 1238 479 1285 q 374 1125 418 1192 l 367 1115 l 360 1106 q 358 1101 358 1103 q 339 1089 351 1089 l 275 1089 q 264 1097 264 1089 q 267 1104 264 1101 l 399 1367 m 449 197 q 215 -17 403 -17 q 103 23 143 -17 q 64 138 64 63 q 66 165 64 151 q 71 194 68 179 l 240 993 q 254 1011 242 1011 l 368 1011 q 375 1003 375 1011 q 374 996 375 999 l 374 993 l 207 204 q 203 182 204 189 q 201 167 201 175 q 242 118 201 118 q 315 204 296 118 l 482 993 q 496 1011 483 1011 l 611 1011 q 618 1003 618 1011 q 617 994 618 997 l 617 993 l 449 197 z "},"Ü":{"ha":438,"x_min":64,"x_max":636,"o":"m 383 1251 q 431 1233 413 1251 q 450 1186 450 1214 q 442 1151 450 1168 q 420 1122 433 1135 q 389 1101 407 1108 q 353 1093 371 1093 q 306 1111 325 1093 q 288 1157 288 1129 q 296 1192 288 1175 q 317 1222 304 1208 q 348 1243 331 1235 q 383 1251 365 1251 m 569 1251 q 617 1233 599 1251 q 636 1186 636 1214 q 628 1151 636 1168 q 606 1122 619 1135 q 575 1101 593 1108 q 539 1093 557 1093 q 492 1111 511 1093 q 474 1157 474 1129 q 482 1192 474 1175 q 503 1222 490 1208 q 534 1243 517 1235 q 569 1251 551 1251 m 449 197 q 215 -17 403 -17 q 103 23 143 -17 q 64 138 64 63 q 66 165 64 151 q 71 194 68 179 l 240 993 q 254 1011 242 1011 l 368 1011 q 375 1003 375 1011 q 374 996 375 999 l 374 993 l 207 204 q 203 182 204 189 q 201 167 201 175 q 242 118 201 118 q 315 204 296 118 l 482 993 q 496 1011 483 1011 l 611 1011 q 618 1003 618 1011 q 617 994 618 997 l 617 993 l 449 197 z "},"Ý":{"ha":507,"x_min":178,"x_max":715,"o":"m 538 1364 q 554 1378 543 1378 l 650 1378 q 658 1372 658 1378 q 657 1364 658 1367 l 499 1099 q 479 1086 492 1086 l 415 1086 q 406 1094 406 1086 q 407 1101 406 1100 l 538 1364 m 388 331 l 321 19 q 299 0 317 0 l 197 0 q 183 6 189 0 q 181 19 178 13 l 247 331 l 218 994 q 231 1011 222 1011 l 379 1011 l 369 567 l 558 1011 l 707 1011 q 715 1001 715 1011 q 714 994 715 999 l 388 331 z "},"Þ":{"ha":457,"x_min":46,"x_max":592,"o":"m 292 460 l 335 460 q 397 517 385 460 l 439 714 q 442 725 442 722 q 442 733 442 728 q 401 763 442 763 l 356 763 l 292 460 m 197 19 q 175 0 193 0 l 63 0 q 46 17 46 0 l 46 18 l 46 19 l 254 994 q 267 1011 258 1011 l 399 1011 q 407 1001 407 1011 q 406 994 407 997 l 385 899 l 446 899 q 503 890 474 899 q 554 865 532 881 q 592 782 592 838 q 591 760 592 774 q 588 740 590 747 l 533 488 q 354 331 497 353 l 264 331 l 197 19 z "},"ß":{"ha":775,"x_min":57,"x_max":865,"o":"m 717 488 l 735 575 q 738 591 738 586 q 739 603 739 596 q 710 639 739 639 q 654 564 671 639 q 650 526 650 540 q 651 503 650 513 q 659 485 653 493 q 677 467 665 476 q 710 443 689 457 q 797 294 797 383 q 796 272 797 283 q 792 250 794 261 l 789 238 q 788 226 788 231 q 786 217 788 222 l 774 169 l 774 164 q 751 97 765 128 q 715 40 736 65 q 655 -4 690 10 q 567 -18 619 -18 q 463 6 490 -18 q 435 97 435 31 q 436 131 435 113 q 440 163 438 150 l 467 285 l 590 285 l 563 156 l 561 135 q 590 100 561 100 q 647 164 633 100 l 647 167 l 656 200 q 660 224 658 208 q 663 249 663 240 q 659 276 663 264 q 644 303 656 289 q 611 338 632 318 q 557 388 590 358 q 528 422 536 406 q 521 465 521 438 q 524 501 521 479 q 531 548 526 524 q 540 595 535 572 q 551 633 546 618 q 733 747 590 747 q 835 721 806 747 q 865 631 865 694 q 861 571 865 604 q 846 488 857 538 l 717 488 m 339 488 l 357 575 q 360 591 360 586 q 361 603 361 596 q 332 639 361 639 q 276 564 293 639 q 272 526 272 540 q 274 503 272 513 q 281 485 275 493 q 299 467 288 476 q 332 443 311 457 q 419 294 419 383 q 418 272 419 283 q 414 250 417 261 l 411 238 q 410 226 410 231 q 408 217 410 222 l 396 169 l 396 164 q 373 97 388 128 q 338 40 358 65 q 277 -4 313 10 q 189 -18 242 -18 q 85 6 113 -18 q 57 97 57 31 q 58 131 57 113 q 63 163 60 150 l 89 285 l 213 285 l 185 156 l 183 135 q 213 100 183 100 q 269 164 256 100 l 269 167 l 278 200 q 283 224 281 208 q 285 249 285 240 q 281 276 285 264 q 266 303 278 289 q 233 338 254 318 q 179 388 213 358 q 151 422 158 406 q 143 465 143 438 q 146 501 143 479 q 153 548 149 524 q 163 595 157 572 q 174 633 168 618 q 356 747 213 747 q 458 721 428 747 q 488 631 488 694 q 483 571 488 604 q 468 488 479 538 l 339 488 z "},"à":{"ha":415,"x_min":61,"x_max":525,"o":"m 383 807 q 369 819 369 807 q 363 858 365 842 q 355 899 360 874 q 343 967 350 924 q 324 1085 336 1010 q 336 1099 324 1099 l 433 1099 q 443 1085 442 1099 l 461 822 q 447 807 461 807 l 383 807 m 369 579 l 369 585 q 358 607 368 597 q 336 617 349 617 q 308 606 321 617 q 292 578 294 594 l 199 143 q 197 136 197 140 q 197 128 197 132 q 228 92 197 92 q 278 144 267 92 l 369 579 m 518 742 q 525 735 525 742 q 524 725 525 729 l 374 19 q 351 0 369 0 l 276 0 l 274 54 q 229 4 260 22 q 158 -14 199 -14 q 88 10 114 -14 q 61 78 61 35 q 65 114 61 94 l 181 654 q 195 681 183 665 q 225 714 207 697 q 264 742 246 733 q 303 750 282 750 q 381 701 350 750 q 388 689 386 694 q 389 675 389 683 l 418 742 l 518 742 z "},"á":{"ha":415,"x_min":61,"x_max":563,"o":"m 442 1085 q 458 1099 446 1099 l 554 1099 q 563 1093 563 1099 q 561 1086 563 1089 l 561 1085 l 401 819 q 382 807 394 807 l 318 807 q 308 815 308 807 l 310 822 l 442 1085 m 369 579 l 369 585 q 358 607 368 597 q 336 617 349 617 q 308 606 321 617 q 292 578 294 594 l 199 143 q 197 136 197 140 q 197 128 197 132 q 228 92 197 92 q 278 144 267 92 l 369 579 m 518 742 q 525 735 525 742 q 524 725 525 729 l 374 19 q 351 0 369 0 l 276 0 l 274 54 q 229 4 260 22 q 158 -14 199 -14 q 88 10 114 -14 q 61 78 61 35 q 65 114 61 94 l 181 654 q 195 681 183 665 q 225 714 207 697 q 264 742 246 733 q 303 750 282 750 q 381 701 350 750 q 388 689 386 694 q 389 675 389 683 l 418 742 l 518 742 z "},"â":{"ha":415,"x_min":61,"x_max":568,"o":"m 329 1085 q 346 1099 333 1099 l 540 1099 q 550 1085 549 1099 l 568 822 q 554 807 568 807 l 490 807 q 476 819 476 807 l 468 854 q 440 965 450 922 q 426 1029 431 1007 q 380 956 411 1003 q 304 843 349 910 l 297 833 l 292 824 q 289 819 289 818 q 269 807 282 807 l 206 807 q 196 815 196 807 l 197 822 l 329 1085 m 369 579 l 369 585 q 358 607 368 597 q 336 617 349 617 q 308 606 321 617 q 292 578 294 594 l 199 143 q 197 136 197 140 q 197 128 197 132 q 228 92 197 92 q 278 144 267 92 l 369 579 m 518 742 q 525 735 525 742 q 524 725 525 729 l 374 19 q 351 0 369 0 l 276 0 l 274 54 q 229 4 260 22 q 158 -14 199 -14 q 88 10 114 -14 q 61 78 61 35 q 65 114 61 94 l 181 654 q 195 681 183 665 q 225 714 207 697 q 264 742 246 733 q 303 750 282 750 q 381 701 350 750 q 388 689 386 694 q 389 675 389 683 l 418 742 l 518 742 z "},"ã":{"ha":415,"x_min":61,"x_max":599,"o":"m 240 986 q 295 1008 272 1001 q 347 1014 318 1014 q 388 1010 371 1014 q 438 992 404 1007 q 474 980 460 983 q 504 976 488 976 q 524 978 515 976 q 542 983 532 979 q 566 992 553 986 q 599 1010 579 999 l 571 878 q 537 860 550 867 q 514 851 524 854 q 496 846 504 847 q 476 844 488 844 q 459 845 467 844 q 443 848 451 846 q 423 854 435 850 q 394 865 411 858 q 356 878 371 875 q 318 881 340 881 q 267 874 289 881 q 213 853 244 868 l 240 986 m 369 579 l 369 585 q 358 607 368 597 q 336 617 349 617 q 308 606 321 617 q 292 578 294 594 l 199 143 q 197 136 197 140 q 197 128 197 132 q 228 92 197 92 q 278 144 267 92 l 369 579 m 518 742 q 525 735 525 742 q 524 725 525 729 l 374 19 q 351 0 369 0 l 276 0 l 274 54 q 229 4 260 22 q 158 -14 199 -14 q 88 10 114 -14 q 61 78 61 35 q 65 114 61 94 l 181 654 q 195 681 183 665 q 225 714 207 697 q 264 742 246 733 q 303 750 282 750 q 381 701 350 750 q 388 689 386 694 q 389 675 389 683 l 418 742 l 518 742 z "},"ä":{"ha":415,"x_min":61,"x_max":579,"o":"m 328 1008 q 374 990 356 1008 q 393 943 393 971 q 385 908 393 925 q 363 878 376 892 q 332 858 350 865 q 296 850 314 850 q 250 868 268 850 q 232 914 232 886 q 240 949 232 932 q 262 978 249 965 q 292 1000 275 992 q 328 1008 310 1008 m 514 1008 q 560 990 542 1008 q 579 943 579 971 q 571 908 579 925 q 549 878 563 892 q 518 858 536 865 q 482 850 500 850 q 436 868 454 850 q 418 914 418 886 q 426 949 418 932 q 448 978 435 965 q 478 1000 461 992 q 514 1008 496 1008 m 369 579 l 369 585 q 358 607 368 597 q 336 617 349 617 q 308 606 321 617 q 292 578 294 594 l 199 143 q 197 136 197 140 q 197 128 197 132 q 228 92 197 92 q 278 144 267 92 l 369 579 m 518 742 q 525 735 525 742 q 524 725 525 729 l 374 19 q 351 0 369 0 l 276 0 l 274 54 q 229 4 260 22 q 158 -14 199 -14 q 88 10 114 -14 q 61 78 61 35 q 65 114 61 94 l 181 654 q 195 681 183 665 q 225 714 207 697 q 264 742 246 733 q 303 750 282 750 q 381 701 350 750 q 388 689 386 694 q 389 675 389 683 l 418 742 l 518 742 z "},"å":{"ha":415,"x_min":61,"x_max":535,"o":"m 439 1096 q 508 1070 482 1096 q 535 1003 535 1044 q 522 949 535 975 q 490 902 510 922 q 443 869 469 882 q 389 857 417 857 q 319 885 347 857 q 292 953 292 913 q 304 1006 292 981 q 337 1052 317 1032 q 383 1084 357 1072 q 439 1096 410 1096 m 424 1025 q 380 1008 397 1025 q 363 964 363 990 q 403 928 363 928 q 447 945 429 928 q 464 988 464 963 q 453 1015 464 1004 q 424 1025 442 1025 m 369 579 l 369 585 q 358 607 368 597 q 336 617 349 617 q 308 606 321 617 q 292 578 294 594 l 199 143 q 197 136 197 140 q 197 128 197 132 q 228 92 197 92 q 278 144 267 92 l 369 579 m 518 742 q 525 735 525 742 q 524 725 525 729 l 374 19 q 351 0 369 0 l 276 0 l 274 54 q 229 4 260 22 q 158 -14 199 -14 q 88 10 114 -14 q 61 78 61 35 q 65 114 61 94 l 181 654 q 195 681 183 665 q 225 714 207 697 q 264 742 246 733 q 303 750 282 750 q 381 701 350 750 q 388 689 386 694 q 389 675 389 683 l 418 742 l 518 742 z "},"æ":{"ha":604,"x_min":61,"x_max":710,"o":"m 488 736 q 531 748 513 744 q 571 751 549 751 q 683 706 650 751 q 710 633 710 671 q 708 618 710 622 l 657 376 q 644 360 653 360 l 454 360 l 406 135 q 414 113 403 125 q 435 101 425 101 q 459 116 444 101 q 476 142 474 131 l 501 256 q 514 272 506 272 l 626 272 q 633 263 633 272 l 633 256 l 603 114 q 578 64 597 88 q 533 22 560 40 q 475 -6 507 4 q 410 -17 443 -17 q 372 -13 389 -17 q 336 0 356 -10 l 276 0 l 274 54 q 229 4 260 22 q 158 -14 199 -14 q 88 10 114 -14 q 61 78 61 35 q 65 114 61 94 l 181 654 q 195 681 183 665 q 225 714 207 697 q 264 742 246 733 q 303 750 282 750 q 381 701 350 750 q 388 689 386 694 q 389 675 389 683 l 407 736 l 488 736 m 369 579 l 369 585 q 358 607 368 597 q 336 617 349 617 q 308 606 321 617 q 292 578 294 594 l 199 143 q 197 136 197 140 q 197 128 197 132 q 228 92 197 92 q 278 144 267 92 l 369 579 m 578 596 l 578 603 q 569 625 578 617 q 544 633 560 633 q 504 592 513 633 l 479 476 l 551 476 l 578 596 z "},"ç":{"ha":374,"x_min":53,"x_max":476,"o":"m 222 -25 q 271 -100 271 -47 q 260 -158 271 -129 q 203 -225 242 -206 q 156 -240 183 -235 q 115 -242 128 -244 q 107 -240 111 -240 l 61 -240 l 82 -142 q 113 -147 100 -146 q 136 -149 125 -149 q 175 -141 164 -149 q 186 -115 186 -133 q 174 -97 186 -103 q 126 -83 163 -90 l 144 4 l 228 4 l 222 -25 m 393 292 q 403 278 403 288 l 369 119 q 299 24 347 58 q 189 -11 251 -11 q 88 21 124 -11 q 53 111 53 53 q 57 150 53 131 l 156 611 q 223 715 169 674 q 346 756 276 756 q 443 726 410 756 q 476 639 476 696 q 476 625 476 631 q 474 611 476 619 l 453 511 q 436 496 450 496 l 342 496 q 332 507 329 496 l 350 594 l 350 596 q 351 603 351 599 q 321 633 351 633 q 278 594 288 633 l 183 150 q 182 139 182 146 q 211 104 182 104 q 239 117 226 104 q 256 150 251 129 l 283 278 q 299 292 286 292 l 393 292 z "},"è":{"ha":411,"x_min":65,"x_max":504,"o":"m 376 807 q 363 819 363 807 q 356 858 358 842 q 348 899 353 874 q 336 967 343 924 q 317 1085 329 1010 q 329 1099 317 1099 l 426 1099 q 436 1085 435 1099 l 454 822 q 440 807 454 807 l 376 807 m 200 135 q 208 113 197 125 q 229 101 219 101 q 253 116 239 101 q 271 142 268 131 l 296 256 q 308 272 300 272 l 421 272 q 428 263 428 272 l 428 256 l 397 114 q 373 65 392 89 q 328 24 354 42 q 270 -6 301 6 q 207 -17 239 -17 q 106 17 147 -17 q 65 101 65 51 q 66 113 65 107 q 68 125 67 118 l 172 617 q 239 714 185 676 q 367 751 293 751 q 478 706 444 751 q 504 633 504 671 q 503 618 504 624 l 451 376 q 439 360 447 360 l 249 360 l 200 135 m 372 596 l 372 603 q 363 625 372 617 q 339 633 354 633 q 299 592 307 633 l 274 476 l 346 476 l 372 596 z "},"é":{"ha":411,"x_min":65,"x_max":574,"o":"m 453 1085 q 469 1099 457 1099 l 565 1099 q 574 1093 574 1099 q 572 1086 574 1089 l 572 1085 l 413 819 q 393 807 406 807 l 329 807 q 319 815 319 807 l 321 822 l 453 1085 m 200 135 q 208 113 197 125 q 229 101 219 101 q 253 116 239 101 q 271 142 268 131 l 296 256 q 308 272 300 272 l 421 272 q 428 263 428 272 l 428 256 l 397 114 q 373 65 392 89 q 328 24 354 42 q 270 -6 301 6 q 207 -17 239 -17 q 106 17 147 -17 q 65 101 65 51 q 66 113 65 107 q 68 125 67 118 l 172 617 q 239 714 185 676 q 367 751 293 751 q 478 706 444 751 q 504 633 504 671 q 503 618 504 624 l 451 376 q 439 360 447 360 l 249 360 l 200 135 m 372 596 l 372 603 q 363 625 372 617 q 339 633 354 633 q 299 592 307 633 l 274 476 l 346 476 l 372 596 z "},"ê":{"ha":411,"x_min":65,"x_max":567,"o":"m 328 1085 q 344 1099 332 1099 l 539 1099 q 549 1085 547 1099 l 567 822 q 553 807 567 807 l 489 807 q 475 819 475 807 l 467 854 q 439 965 449 922 q 425 1029 429 1007 q 378 956 410 1003 q 303 843 347 910 l 296 833 l 290 824 q 288 819 288 818 q 268 807 281 807 l 204 807 q 194 815 194 807 l 196 822 l 328 1085 m 200 135 q 208 113 197 125 q 229 101 219 101 q 253 116 239 101 q 271 142 268 131 l 296 256 q 308 272 300 272 l 421 272 q 428 263 428 272 l 428 256 l 397 114 q 373 65 392 89 q 328 24 354 42 q 270 -6 301 6 q 207 -17 239 -17 q 106 17 147 -17 q 65 101 65 51 q 66 113 65 107 q 68 125 67 118 l 172 617 q 239 714 185 676 q 367 751 293 751 q 478 706 444 751 q 504 633 504 671 q 503 618 504 624 l 451 376 q 439 360 447 360 l 249 360 l 200 135 m 372 596 l 372 603 q 363 625 372 617 q 339 633 354 633 q 299 592 307 633 l 274 476 l 346 476 l 372 596 z "},"ë":{"ha":411,"x_min":65,"x_max":581,"o":"m 329 1008 q 376 990 357 1008 q 394 943 394 971 q 386 908 394 925 q 365 878 378 892 q 333 858 351 865 q 297 850 315 850 q 251 868 269 850 q 233 914 233 886 q 242 949 233 932 q 263 978 250 965 q 294 1000 276 992 q 329 1008 311 1008 m 515 1008 q 562 990 543 1008 q 581 943 581 971 q 572 908 581 925 q 551 878 564 892 q 519 858 538 865 q 483 850 501 850 q 438 868 456 850 q 419 914 419 886 q 428 949 419 932 q 449 978 436 965 q 480 1000 463 992 q 515 1008 497 1008 m 200 135 q 208 113 197 125 q 229 101 219 101 q 253 116 239 101 q 271 142 268 131 l 296 256 q 308 272 300 272 l 421 272 q 428 263 428 272 l 428 256 l 397 114 q 373 65 392 89 q 328 24 354 42 q 270 -6 301 6 q 207 -17 239 -17 q 106 17 147 -17 q 65 101 65 51 q 66 113 65 107 q 68 125 67 118 l 172 617 q 239 714 185 676 q 367 751 293 751 q 478 706 444 751 q 504 633 504 671 q 503 618 504 624 l 451 376 q 439 360 447 360 l 249 360 l 200 135 m 372 596 l 372 603 q 363 625 372 617 q 339 633 354 633 q 299 592 307 633 l 274 476 l 346 476 l 372 596 z "},"ì":{"ha":235,"x_min":75,"x_max":381,"o":"m 301 807 q 288 819 289 807 q 282 849 285 831 q 274 897 279 867 q 260 973 268 928 q 242 1085 253 1018 q 254 1099 242 1099 l 350 1099 q 361 1085 361 1099 l 379 822 q 376 811 381 815 q 365 807 372 807 l 301 807 m 211 21 q 192 0 207 0 l 90 0 q 75 18 75 0 l 75 21 l 224 725 q 231 737 226 732 q 239 742 235 742 l 357 742 q 361 735 361 742 q 360 725 361 728 l 211 21 z "},"í":{"ha":235,"x_min":36,"x_max":464,"o":"m 301 819 q 282 807 294 807 l 218 807 q 208 815 208 807 q 210 822 208 819 l 342 1085 q 357 1099 346 1099 l 454 1099 q 464 1092 464 1099 q 461 1085 464 1090 l 301 819 m 172 21 q 153 0 168 0 l 51 0 q 36 18 36 0 l 36 21 l 185 725 q 192 737 188 732 q 200 742 196 742 l 318 742 q 322 735 322 742 q 321 725 322 728 l 172 21 z "},"î":{"ha":378,"x_min":124,"x_max":549,"o":"m 519 1099 q 529 1085 529 1099 l 547 822 q 544 811 549 815 q 533 807 540 807 l 469 807 q 456 819 457 807 l 447 854 q 431 919 438 892 q 420 966 425 946 q 412 1001 415 986 q 406 1029 408 1015 q 348 940 382 992 q 269 821 314 888 l 268 819 q 249 807 261 807 l 185 807 q 175 815 175 807 q 176 822 175 819 l 308 1085 q 324 1099 313 1099 l 422 1099 l 519 1099 m 260 21 q 240 0 256 0 l 139 0 q 124 18 124 0 l 124 21 l 272 725 q 279 737 275 732 q 288 742 283 742 l 406 742 q 410 735 410 742 q 408 725 410 728 l 260 21 z "},"ï":{"ha":349,"x_min":108,"x_max":546,"o":"m 294 1008 q 341 990 322 1008 q 360 944 360 972 q 351 909 360 926 q 330 878 343 892 q 299 858 317 865 q 263 850 281 850 q 217 867 235 850 q 199 913 199 885 q 207 948 199 931 q 228 979 215 965 q 259 1001 242 993 q 294 1008 276 1008 m 481 1008 q 527 990 508 1008 q 546 944 546 972 q 538 909 546 926 q 516 878 529 892 q 485 858 503 865 q 449 850 467 850 q 403 867 421 850 q 385 913 385 885 q 393 948 385 931 q 415 979 401 965 q 445 1001 428 993 q 481 1008 463 1008 m 244 21 q 225 0 240 0 l 124 0 q 108 18 108 0 l 108 21 l 257 725 q 264 737 260 732 q 272 742 268 742 l 390 742 q 394 735 394 742 q 393 725 394 728 l 244 21 z "},"ð":{"ha":449,"x_min":67,"x_max":607,"o":"m 279 158 q 275 143 278 154 l 279 168 l 279 158 m 369 597 q 339 633 369 633 q 290 582 303 633 l 201 158 q 199 142 200 151 q 199 126 199 133 q 228 92 199 92 q 256 101 247 92 q 271 138 265 110 l 278 168 l 369 597 m 399 132 q 379 83 394 108 q 344 36 364 57 q 284 -5 317 8 q 207 -18 251 -18 q 103 12 139 -18 q 67 97 67 42 q 71 144 67 124 l 168 607 q 357 746 200 746 l 400 743 l 404 763 l 369 749 l 349 828 l 418 857 q 392 874 411 874 q 372 871 381 874 q 350 861 364 868 l 347 861 l 346 860 l 344 860 l 374 999 q 396 1002 389 1001 q 414 1003 403 1003 q 501 982 471 1003 q 549 913 532 961 l 588 929 l 607 849 l 547 824 l 399 132 z "},"ñ":{"ha":399,"x_min":38,"x_max":593,"o":"m 235 986 q 290 1008 267 1001 q 342 1014 313 1014 q 382 1010 365 1014 q 432 992 399 1007 q 469 980 454 983 q 500 976 483 976 q 519 978 510 976 q 538 983 528 979 q 560 992 547 986 q 593 1010 574 999 l 565 878 q 532 860 544 867 q 510 849 519 853 q 492 845 500 846 q 472 844 483 844 q 438 848 453 844 q 389 865 424 851 q 350 878 365 875 q 314 881 335 881 q 262 874 285 881 q 207 853 239 868 l 235 986 m 297 676 q 424 751 338 751 q 487 732 464 751 q 510 676 510 713 q 509 665 510 669 q 506 649 508 660 l 372 21 q 353 0 368 0 l 264 0 q 249 17 249 0 l 249 21 l 368 582 q 369 590 369 585 q 369 597 369 594 q 333 631 369 631 q 279 574 292 631 l 163 21 q 143 0 158 0 l 53 0 q 38 17 38 0 l 38 21 l 186 725 q 192 737 188 732 q 201 742 197 742 l 300 742 l 297 676 z "},"ò":{"ha":388,"x_min":54,"x_max":490,"o":"m 379 807 q 365 819 365 807 q 358 858 361 842 q 351 899 356 874 q 339 967 346 924 q 319 1085 332 1010 q 332 1099 319 1099 l 429 1099 q 439 1085 438 1099 l 457 822 q 443 807 457 807 l 379 807 m 357 588 q 360 599 360 594 q 360 607 360 603 q 328 639 360 639 q 279 588 290 639 l 190 160 q 186 128 186 140 q 215 93 186 93 q 248 108 236 93 q 267 160 260 124 l 357 588 m 158 613 q 347 751 188 751 q 490 632 490 751 l 489 608 l 388 133 q 332 38 376 85 q 272 -3 304 10 q 194 -17 239 -17 q 90 13 126 -17 q 54 99 54 43 q 60 146 54 124 l 158 613 z "},"ó":{"ha":388,"x_min":54,"x_max":564,"o":"m 443 1085 q 460 1099 447 1099 l 556 1099 q 564 1093 564 1099 q 563 1086 564 1089 l 563 1085 l 403 819 q 383 807 396 807 l 319 807 q 310 815 310 807 q 311 822 310 821 l 443 1085 m 357 588 q 360 599 360 594 q 360 607 360 603 q 328 639 360 639 q 279 588 290 639 l 190 160 q 186 128 186 140 q 215 93 186 93 q 248 108 236 93 q 267 160 260 124 l 357 588 m 158 613 q 347 751 188 751 q 490 632 490 751 l 489 608 l 388 133 q 332 38 376 85 q 272 -3 304 10 q 194 -17 239 -17 q 90 13 126 -17 q 54 99 54 43 q 60 146 54 124 l 158 613 z "},"ô":{"ha":388,"x_min":54,"x_max":553,"o":"m 314 1085 q 331 1099 318 1099 l 525 1099 q 535 1085 533 1099 l 553 822 q 539 807 553 807 l 475 807 q 461 819 461 807 l 453 854 q 425 965 435 922 q 411 1029 415 1007 q 364 956 394 1003 q 289 843 333 910 l 282 833 l 275 824 l 274 819 q 254 807 267 807 l 190 807 q 181 815 181 807 q 182 822 181 821 l 314 1085 m 357 588 q 360 599 360 594 q 360 607 360 603 q 328 639 360 639 q 279 588 290 639 l 190 160 q 186 128 186 140 q 215 93 186 93 q 248 108 236 93 q 267 160 260 124 l 357 588 m 158 613 q 347 751 188 751 q 490 632 490 751 l 489 608 l 388 133 q 332 38 376 85 q 272 -3 304 10 q 194 -17 239 -17 q 90 13 126 -17 q 54 99 54 43 q 60 146 54 124 l 158 613 z "},"õ":{"ha":388,"x_min":54,"x_max":583,"o":"m 225 986 q 280 1008 257 1001 q 332 1014 303 1014 q 372 1010 356 1014 q 422 992 389 1007 q 458 980 444 983 q 489 976 472 976 q 508 978 500 976 q 527 983 517 979 q 551 992 538 986 q 583 1010 564 999 l 556 878 q 522 860 535 867 q 499 851 508 854 q 481 846 489 847 q 461 844 472 844 q 444 845 451 844 q 428 848 436 846 q 408 854 419 850 q 379 865 396 858 q 340 878 356 875 q 303 881 325 881 q 251 874 274 881 q 197 853 229 868 l 225 986 m 357 588 q 360 599 360 594 q 360 607 360 603 q 328 639 360 639 q 279 588 290 639 l 190 160 q 186 128 186 140 q 215 93 186 93 q 248 108 236 93 q 267 160 260 124 l 357 588 m 158 613 q 347 751 188 751 q 490 632 490 751 l 489 608 l 388 133 q 332 38 376 85 q 272 -3 304 10 q 194 -17 239 -17 q 90 13 126 -17 q 54 99 54 43 q 60 146 54 124 l 158 613 z "},"ö":{"ha":388,"x_min":54,"x_max":567,"o":"m 314 1008 q 362 990 343 1008 q 381 943 381 971 q 372 908 381 925 q 351 878 364 892 q 319 858 338 865 q 283 850 301 850 q 237 868 256 850 q 218 914 218 886 q 226 949 218 932 q 248 978 235 965 q 278 1000 261 992 q 314 1008 296 1008 m 500 1008 q 548 990 529 1008 q 567 943 567 971 q 558 908 567 925 q 537 878 550 892 q 506 858 524 865 q 469 850 488 850 q 423 868 442 850 q 404 914 404 886 q 413 949 404 932 q 434 978 421 965 q 465 1000 447 992 q 500 1008 482 1008 m 357 588 q 360 599 360 594 q 360 607 360 603 q 328 639 360 639 q 279 588 290 639 l 190 160 q 186 128 186 140 q 215 93 186 93 q 248 108 236 93 q 267 160 260 124 l 357 588 m 158 613 q 347 751 188 751 q 490 632 490 751 l 489 608 l 388 133 q 332 38 376 85 q 272 -3 304 10 q 194 -17 239 -17 q 90 13 126 -17 q 54 99 54 43 q 60 146 54 124 l 158 613 z "},"÷":{"ha":499,"x_min":93,"x_max":553,"o":"m 388 665 q 436 647 417 665 q 456 599 456 628 q 447 561 456 579 q 424 530 439 543 q 391 508 410 517 q 351 500 372 500 q 305 518 324 500 q 286 565 286 536 q 294 603 286 585 q 317 635 303 621 q 350 657 332 649 q 388 665 368 665 m 536 417 q 553 403 553 417 q 551 397 553 400 l 533 308 q 510 289 531 289 l 110 289 q 93 303 93 289 l 93 308 l 111 397 q 136 417 115 417 l 536 417 m 297 236 q 346 217 326 236 q 365 168 365 197 q 356 131 365 149 q 333 101 347 114 q 299 79 318 88 q 260 71 281 71 q 214 89 232 71 q 196 135 196 107 q 226 206 196 175 q 297 236 257 236 z "},"ø":{"ha":388,"x_min":57,"x_max":494,"o":"m 200 -135 q 186 -151 199 -151 l 129 -151 q 124 -143 124 -151 l 124 -135 l 150 -12 q 78 28 100 3 q 57 96 57 53 q 63 146 57 119 l 161 608 q 209 701 175 669 q 310 744 243 733 l 338 871 q 350 888 342 888 l 407 888 q 415 878 415 888 q 414 871 415 874 l 386 744 q 470 708 446 733 q 494 632 494 683 q 494 619 494 625 q 490 604 493 614 l 390 133 q 333 35 378 75 q 225 -15 288 -6 l 200 -135 m 360 583 q 362 593 361 589 q 363 601 363 597 q 332 635 363 635 q 282 583 294 635 l 193 160 q 191 144 192 153 q 190 128 190 135 q 219 93 190 93 q 251 108 240 93 q 269 160 263 124 l 360 583 z "},"ù":{"ha":401,"x_min":54,"x_max":521,"o":"m 390 807 q 376 819 376 807 q 369 858 372 842 q 362 899 367 874 q 350 967 357 924 q 331 1085 343 1010 q 343 1099 331 1099 l 440 1099 q 450 1085 449 1099 l 468 822 q 454 807 468 807 l 390 807 m 258 38 q 206 -1 242 15 q 135 -17 169 -17 q 75 10 96 -17 q 54 88 54 38 q 63 156 54 119 l 183 725 q 189 737 185 732 q 199 742 193 742 l 308 742 q 314 732 314 742 l 314 725 l 194 158 q 191 145 192 150 q 190 133 190 140 q 224 97 190 97 q 276 163 263 97 l 396 725 q 401 737 397 732 q 411 742 406 742 l 515 742 q 521 732 521 742 l 521 725 l 372 21 q 353 0 368 0 l 268 0 l 258 38 z "},"ú":{"ha":401,"x_min":54,"x_max":550,"o":"m 429 1085 q 446 1099 431 1099 l 542 1099 q 550 1093 550 1099 q 549 1086 550 1089 l 549 1085 l 389 819 q 369 807 382 807 l 306 807 q 294 815 294 807 q 297 822 294 818 l 429 1085 m 258 38 q 206 -1 242 15 q 135 -17 169 -17 q 75 10 96 -17 q 54 88 54 38 q 63 156 54 119 l 183 725 q 189 737 185 732 q 199 742 193 742 l 308 742 q 314 732 314 742 l 314 725 l 194 158 q 191 145 192 150 q 190 133 190 140 q 224 97 190 97 q 276 163 263 97 l 396 725 q 401 737 397 732 q 411 742 406 742 l 515 742 q 521 732 521 742 l 521 725 l 372 21 q 353 0 368 0 l 268 0 l 258 38 z "},"û":{"ha":401,"x_min":54,"x_max":560,"o":"m 321 1085 q 338 1099 322 1099 l 532 1099 q 542 1085 540 1099 l 560 822 q 546 807 560 807 l 482 807 q 468 819 468 807 l 458 854 q 431 965 442 922 q 418 1029 421 1007 q 371 956 401 1003 q 296 843 340 910 l 289 833 l 282 824 q 281 819 281 821 q 261 807 272 807 l 197 807 q 186 815 186 807 q 189 822 186 818 l 321 1085 m 258 38 q 206 -1 242 15 q 135 -17 169 -17 q 75 10 96 -17 q 54 88 54 38 q 63 156 54 119 l 183 725 q 189 737 185 732 q 199 742 193 742 l 308 742 q 314 732 314 742 l 314 725 l 194 158 q 191 145 192 150 q 190 133 190 140 q 224 97 190 97 q 276 163 263 97 l 396 725 q 401 737 397 732 q 411 742 406 742 l 515 742 q 521 732 521 742 l 521 725 l 372 21 q 353 0 368 0 l 268 0 l 258 38 z "},"ü":{"ha":401,"x_min":54,"x_max":569,"o":"m 317 1008 q 365 990 346 1008 q 383 943 383 971 q 375 908 383 925 q 353 878 367 892 q 322 858 340 865 q 286 850 304 850 q 240 868 258 850 q 221 914 221 886 q 229 949 221 932 q 251 978 238 965 q 281 1000 264 992 q 317 1008 299 1008 m 503 1008 q 551 990 532 1008 q 569 943 569 971 q 561 908 569 925 q 540 878 553 892 q 508 858 526 865 q 472 850 490 850 q 426 868 444 850 q 407 914 407 886 q 415 949 407 932 q 437 978 424 965 q 467 1000 450 992 q 503 1008 485 1008 m 258 38 q 206 -1 242 15 q 135 -17 169 -17 q 75 10 96 -17 q 54 88 54 38 q 63 156 54 119 l 183 725 q 189 737 185 732 q 199 742 193 742 l 308 742 q 314 732 314 742 l 314 725 l 194 158 q 191 145 192 150 q 190 133 190 140 q 224 97 190 97 q 276 163 263 97 l 396 725 q 401 737 397 732 q 411 742 406 742 l 515 742 q 521 732 521 742 l 521 725 l 372 21 q 353 0 368 0 l 268 0 l 258 38 z "},"ý":{"ha":407,"x_min":51,"x_max":544,"o":"m 422 1085 q 439 1099 426 1099 l 535 1099 q 543 1093 543 1099 q 542 1085 543 1088 l 382 819 q 363 807 375 807 l 299 807 q 289 815 289 807 q 290 822 289 821 l 422 1085 m 185 -224 l 51 -224 l 138 0 l 171 725 q 185 742 176 742 l 303 742 l 261 272 l 419 742 l 538 742 q 544 735 544 742 l 543 725 l 185 -224 z "},"þ":{"ha":440,"x_min":6,"x_max":556,"o":"m 150 -201 q 126 -221 144 -221 l 21 -221 q 6 -207 6 -221 l 6 -201 l 258 990 q 272 1007 263 1007 l 397 1007 q 404 999 404 1007 q 403 990 404 993 l 351 749 l 356 754 q 467 800 407 800 q 556 707 556 800 q 554 683 556 696 q 549 653 553 669 l 436 122 q 382 20 424 60 q 290 -19 340 -19 q 234 -4 258 -19 q 200 38 210 11 l 150 -201 m 221 132 q 251 104 226 104 q 311 169 297 104 l 406 613 q 408 624 407 619 q 408 636 408 629 q 374 671 408 671 q 329 642 344 671 l 221 132 z "},"ÿ":{"ha":410,"x_min":51,"x_max":578,"o":"m 326 1008 q 373 990 354 1008 q 392 943 392 971 q 383 908 392 925 q 362 878 375 892 q 331 858 349 865 q 294 850 313 850 q 249 868 267 850 q 231 914 231 886 q 239 949 231 932 q 260 978 247 965 q 291 1000 274 992 q 326 1008 308 1008 m 513 1008 q 559 990 540 1008 q 578 943 578 971 q 569 908 578 925 q 548 878 561 892 q 517 858 535 865 q 481 850 499 850 q 435 868 453 850 q 417 914 417 886 q 425 949 417 932 q 447 978 433 965 q 477 1000 460 992 q 513 1008 494 1008 m 185 -224 l 51 -224 l 138 0 l 171 725 q 185 742 176 742 l 303 742 l 261 272 l 419 742 l 538 742 q 544 735 544 742 l 543 725 l 185 -224 z "},"Œ":{"ha":604,"x_min":69,"x_max":786,"o":"m 444 815 q 447 826 446 822 q 447 835 447 831 q 411 869 447 869 q 356 815 367 869 l 219 175 q 217 162 218 168 q 217 150 217 156 q 250 118 217 118 q 287 134 271 118 q 308 175 303 150 l 444 815 m 310 0 q 263 -15 282 -11 q 221 -19 244 -19 q 110 22 150 -19 q 69 138 69 64 q 74 179 69 160 l 213 833 q 242 908 221 874 q 294 968 264 943 q 362 1008 325 993 q 438 1022 399 1022 q 504 1011 476 1022 l 786 1011 l 758 876 l 610 876 l 544 574 l 694 574 l 667 439 l 518 439 l 451 126 l 601 126 l 575 0 l 310 0 z "},"œ":{"ha":593,"x_min":57,"x_max":699,"o":"m 161 608 q 350 747 190 747 q 406 742 383 747 q 450 722 428 736 q 503 744 479 738 q 560 751 528 751 q 672 706 639 751 q 699 633 699 671 q 697 618 699 624 l 646 376 q 633 360 642 360 l 443 360 l 394 135 q 403 113 392 125 q 424 101 414 101 q 448 116 433 101 q 465 142 463 131 l 490 256 q 503 272 494 272 l 615 272 q 622 263 622 272 l 622 256 l 592 114 q 567 65 586 89 q 522 24 549 42 q 465 -6 496 6 q 401 -17 433 -17 q 352 -10 375 -17 q 303 13 329 -3 q 251 -10 275 -4 q 196 -17 228 -17 q 93 13 129 -17 q 57 100 57 43 q 63 146 57 124 l 161 608 m 360 583 l 361 601 q 331 635 361 635 q 282 583 292 635 l 193 160 q 189 128 189 140 q 218 93 189 93 q 251 106 238 93 q 267 140 264 119 l 269 160 l 360 583 m 567 596 l 567 603 q 558 625 567 617 q 533 633 549 633 q 493 592 501 633 l 468 476 l 540 476 l 567 596 z "},"Š":{"ha":435,"x_min":60,"x_max":694,"o":"m 350 1089 q 340 1103 342 1089 l 321 1365 q 336 1381 321 1381 l 400 1381 q 414 1368 414 1381 l 422 1336 q 447 1228 438 1271 q 463 1158 457 1186 q 481 1188 471 1172 q 506 1226 492 1204 q 542 1280 521 1249 q 593 1356 563 1311 q 597 1363 596 1361 q 601 1368 599 1364 q 621 1381 607 1381 l 685 1381 q 694 1372 694 1381 q 693 1367 694 1368 l 692 1365 l 561 1103 q 546 1089 557 1089 l 449 1089 l 350 1089 m 431 819 q 433 835 433 826 q 397 868 433 868 q 358 849 374 868 q 336 806 346 833 q 326 764 326 779 l 326 754 q 325 751 325 753 q 324 749 325 750 q 324 744 324 747 q 322 733 322 742 q 321 717 321 724 q 336 648 321 679 q 388 578 351 617 q 461 483 438 525 q 485 403 485 442 q 479 360 485 381 l 436 153 q 408 97 431 128 q 354 39 386 67 q 207 -18 286 -18 q 98 21 136 -18 q 60 131 60 60 q 61 164 60 149 q 68 204 63 179 l 100 356 q 113 372 104 372 l 239 372 q 247 363 247 372 q 246 356 247 358 l 207 175 q 205 163 206 167 q 204 154 204 158 q 238 125 204 125 q 293 178 282 125 l 324 324 q 326 334 325 329 q 326 346 326 339 q 322 397 326 375 q 306 440 318 419 q 275 482 294 461 q 226 528 256 503 q 184 582 197 553 q 171 651 171 611 q 173 686 171 667 q 178 722 175 706 l 204 849 q 231 903 211 874 q 281 961 250 933 q 432 1024 349 1024 q 541 981 499 1024 q 583 869 583 938 q 583 858 583 864 q 582 851 583 853 l 549 694 q 525 675 546 675 l 419 675 q 404 690 404 675 l 404 694 l 421 772 l 431 819 z "},"š":{"ha":399,"x_min":57,"x_max":619,"o":"m 275 807 q 265 821 267 807 l 246 1083 q 261 1099 246 1099 l 325 1099 q 339 1086 339 1099 q 342 1074 340 1083 q 353 1028 344 1064 l 388 876 q 435 950 404 904 q 519 1075 465 996 l 526 1086 q 546 1099 532 1099 l 610 1099 q 619 1090 619 1099 q 618 1085 619 1086 l 617 1083 l 486 821 q 471 807 482 807 l 374 807 l 275 807 m 339 488 l 357 575 q 360 591 360 586 q 361 603 361 596 q 332 639 361 639 q 276 564 293 639 q 272 526 272 540 q 274 503 272 513 q 281 485 275 493 q 299 467 288 476 q 332 443 311 457 q 419 294 419 383 q 414 250 419 271 l 396 164 q 371 94 389 131 q 331 33 353 57 q 273 -6 307 6 q 189 -18 239 -18 q 85 6 113 -18 q 57 97 57 31 q 58 131 57 113 q 63 163 60 150 l 89 285 l 213 285 l 185 156 l 183 135 q 213 100 183 100 q 253 124 238 100 q 279 206 268 147 q 283 231 282 222 q 285 249 285 240 q 281 276 285 264 q 266 303 278 289 q 233 338 254 318 q 179 388 213 358 q 151 422 158 406 q 143 465 143 438 q 146 501 143 479 q 153 548 149 524 q 163 595 157 572 q 174 633 168 618 q 356 747 213 747 q 458 721 428 747 q 488 631 488 694 q 483 571 488 604 q 468 488 479 538 l 339 488 z "},"Ÿ":{"ha":496,"x_min":175,"x_max":713,"o":"m 417 1251 q 463 1233 444 1251 q 482 1186 482 1214 q 474 1151 482 1168 q 452 1122 465 1135 q 421 1101 439 1108 q 385 1093 403 1093 q 339 1111 357 1093 q 321 1157 321 1129 q 329 1192 321 1175 q 351 1222 338 1208 q 381 1243 364 1235 q 417 1251 399 1251 m 603 1251 q 649 1233 631 1251 q 668 1186 668 1214 q 660 1151 668 1168 q 638 1122 651 1135 q 607 1101 625 1108 q 571 1093 589 1093 q 525 1111 543 1093 q 507 1157 507 1129 q 515 1192 507 1175 q 537 1222 524 1208 q 567 1243 550 1235 q 603 1251 585 1251 m 385 331 l 318 19 q 296 0 314 0 l 194 0 q 181 6 186 0 q 178 19 175 13 l 244 331 l 215 994 q 228 1011 219 1011 l 376 1011 l 367 567 l 556 1011 l 704 1011 q 713 1001 713 1011 q 711 994 713 999 l 385 331 z "},"Ž":{"ha":396,"x_min":14,"x_max":675,"o":"m 331 1089 q 321 1103 322 1089 l 301 1365 q 317 1381 301 1381 l 381 1381 q 394 1368 394 1381 l 403 1336 q 428 1228 418 1271 q 443 1158 438 1186 q 483 1220 457 1182 q 550 1321 508 1258 l 554 1326 l 557 1331 q 564 1342 560 1335 q 574 1356 568 1349 q 578 1363 578 1361 q 582 1368 579 1365 q 601 1381 588 1381 l 665 1381 q 675 1372 675 1381 q 672 1365 675 1368 l 542 1103 q 526 1089 538 1089 l 429 1089 l 331 1089 m 365 10 q 347 0 363 0 l 14 0 l 385 871 l 215 871 q 200 881 200 871 l 226 1001 q 244 1011 226 1011 l 593 1011 l 206 115 l 371 115 q 386 106 386 115 l 365 10 z "},"ž":{"ha":385,"x_min":44,"x_max":610,"o":"m 265 807 q 256 821 257 807 l 236 1083 q 251 1099 236 1099 l 315 1099 q 329 1086 326 1099 q 331 1074 329 1083 q 343 1028 333 1064 l 378 876 q 425 950 394 904 q 510 1075 456 996 l 517 1086 q 536 1099 522 1099 l 600 1099 q 610 1090 610 1099 q 607 1083 610 1086 l 476 821 q 461 807 472 807 l 364 807 l 265 807 m 340 10 q 322 0 338 0 l 44 0 l 68 111 l 328 619 l 192 619 q 178 628 178 619 l 178 629 l 200 732 q 218 742 200 742 l 493 742 l 467 618 l 208 121 l 347 121 q 363 111 363 121 l 340 10 z "},"ƒ":{"ha":332,"x_min":-44,"x_max":526,"o":"m 456 758 q 463 755 460 758 q 465 749 467 751 l 464 743 l 443 643 q 428 628 440 628 l 360 628 l 204 -104 q 56 -229 136 -229 l -44 -229 l -18 -110 q 1 -111 -12 -111 q 50 -97 31 -111 q 76 -54 69 -82 l 224 628 l 192 628 q 181 638 181 628 q 182 643 181 639 l 203 743 q 219 758 206 758 l 258 758 l 285 885 q 336 964 292 917 q 424 1008 379 1008 l 526 1008 l 501 890 q 479 892 494 892 q 404 833 417 892 l 389 758 l 456 758 z "},"ˆ":{"ha":446,"x_min":210,"x_max":583,"o":"m 554 1099 q 564 1085 564 1099 l 582 822 q 579 811 583 815 q 568 807 575 807 l 504 807 q 490 819 490 807 l 482 854 q 454 965 464 922 q 440 1029 444 1007 q 394 956 425 1003 q 319 843 364 910 l 313 833 l 306 824 q 303 819 304 821 q 283 807 296 807 l 219 807 q 210 815 210 807 q 211 822 210 821 l 343 1085 q 358 1099 347 1099 l 457 1099 l 554 1099 z "},"˜":{"ha":418,"x_min":215,"x_max":601,"o":"m 243 986 q 298 1008 275 1001 q 350 1014 321 1014 q 390 1010 374 1014 q 440 992 407 1007 q 477 980 463 983 q 507 976 492 976 q 527 978 518 976 q 546 983 536 979 q 569 992 556 986 q 601 1010 582 999 l 574 878 q 540 860 553 867 q 518 851 528 854 q 500 846 508 847 q 481 844 492 844 q 463 845 471 844 q 447 848 456 846 q 426 854 438 850 q 397 865 414 858 q 358 878 374 875 q 321 881 343 881 q 269 874 292 881 q 215 853 247 868 l 243 986 z "},"–":{"ha":717,"x_min":93,"x_max":764,"o":"m 747 417 q 764 403 764 417 q 763 397 764 400 l 744 308 q 721 289 742 289 l 110 289 q 93 303 93 289 l 93 308 l 111 397 q 136 417 115 417 l 747 417 z "},"—":{"ha":1186,"x_min":93,"x_max":1244,"o":"m 1228 417 q 1244 403 1244 417 q 1243 397 1244 400 l 1225 308 q 1201 289 1222 289 l 110 289 q 93 303 93 289 l 93 308 l 111 397 q 136 417 115 417 l 1228 417 z "},"‘":{"ha":178,"x_min":213,"x_max":381,"o":"m 219 871 q 213 876 213 871 q 215 883 213 879 q 230 920 219 894 q 267 1007 240 946 q 283 1046 275 1026 q 301 1085 292 1065 q 313 1111 308 1101 q 319 1125 317 1121 q 326 1130 322 1129 q 333 1131 329 1131 l 378 1131 q 381 1126 381 1131 l 381 1119 l 304 883 q 289 871 300 871 l 219 871 z "},"’":{"ha":172,"x_min":213,"x_max":381,"o":"m 381 1122 q 379 1119 379 1121 q 370 1097 376 1113 q 352 1055 364 1082 q 322 986 340 1028 q 278 883 304 944 q 261 872 271 872 l 217 872 q 213 876 213 872 q 214 882 213 881 l 214 883 q 217 896 215 889 q 224 915 219 903 q 235 949 228 928 q 253 1006 242 969 q 265 1044 260 1025 q 278 1083 271 1064 q 293 1124 289 1115 q 306 1132 297 1132 l 375 1132 q 381 1126 381 1132 l 381 1122 z "},"‚":{"ha":172,"x_min":-3,"x_max":165,"o":"m 158 115 q 165 110 165 115 q 163 103 165 107 q 148 66 158 92 q 111 -21 138 40 q 76 -99 93 -56 q 65 -125 69 -115 q 58 -139 61 -135 q 51 -144 54 -143 q 44 -144 49 -144 l 0 -144 q -3 -140 -3 -144 q -1 -133 -3 -136 q 9 -99 0 -128 q 29 -35 18 -71 q 51 37 40 1 q 69 92 63 72 q 78 111 75 107 q 89 115 82 115 l 158 115 z "},"“":{"ha":340,"x_min":213,"x_max":536,"o":"m 375 871 q 368 876 368 871 q 371 883 368 879 q 385 920 375 894 q 422 1007 396 946 q 439 1046 431 1026 q 457 1085 447 1065 q 468 1111 464 1101 q 475 1125 472 1121 q 481 1130 478 1129 q 489 1131 485 1131 l 533 1131 q 536 1126 536 1131 l 536 1119 l 460 883 q 444 871 456 871 l 375 871 m 219 871 q 213 876 213 871 q 215 883 213 879 q 230 920 219 894 q 267 1007 240 946 q 283 1046 275 1026 q 301 1085 292 1065 q 313 1111 308 1101 q 319 1125 317 1121 q 326 1130 322 1129 q 333 1131 329 1131 l 378 1131 q 381 1126 381 1131 l 381 1119 l 304 883 q 289 871 300 871 l 219 871 z "},"”":{"ha":329,"x_min":213,"x_max":536,"o":"m 381 1122 q 379 1119 379 1121 q 370 1097 376 1113 q 352 1055 364 1082 q 322 986 340 1028 q 278 883 304 944 q 261 872 271 872 l 217 872 q 213 876 213 872 q 214 882 213 881 l 214 883 q 217 896 215 889 q 224 915 219 903 q 235 949 228 928 q 253 1006 242 969 q 265 1044 260 1025 q 278 1083 271 1064 q 293 1124 289 1115 q 306 1132 297 1132 l 375 1132 q 381 1126 381 1132 l 381 1122 m 536 1122 q 535 1119 535 1121 q 526 1097 532 1113 q 508 1055 519 1082 q 478 986 496 1028 q 433 883 460 944 q 417 872 426 872 l 372 872 q 368 876 368 872 q 369 882 368 881 l 369 883 q 373 896 371 889 q 379 915 375 903 q 390 949 383 928 q 408 1006 397 969 q 421 1044 415 1025 q 433 1083 426 1064 q 449 1124 444 1115 q 461 1132 453 1132 l 531 1132 q 536 1126 536 1132 l 536 1122 z "},"„":{"ha":332,"x_min":-3,"x_max":321,"o":"m 158 115 q 165 110 165 115 q 163 103 165 107 q 148 66 158 92 q 111 -21 138 40 q 76 -99 93 -56 q 65 -125 69 -115 q 58 -139 61 -135 q 51 -144 54 -143 q 44 -144 49 -144 l 0 -144 q -3 -140 -3 -144 q -1 -133 -3 -136 q 9 -99 0 -128 q 29 -35 18 -71 q 51 37 40 1 q 69 92 63 72 q 78 111 75 107 q 89 115 82 115 l 158 115 m 314 115 q 321 110 321 115 q 318 103 321 107 q 303 66 314 92 q 267 -21 293 40 q 232 -99 249 -56 q 221 -125 225 -115 q 213 -139 217 -135 q 207 -144 210 -143 q 200 -144 204 -144 l 156 -144 q 151 -140 151 -144 q 153 -135 151 -137 l 153 -133 l 229 103 q 244 115 233 115 l 314 115 z "},"†":{"ha":393,"x_min":124,"x_max":544,"o":"m 332 986 q 356 1006 336 1006 l 458 1006 q 474 990 474 1006 q 469 961 474 988 q 457 903 464 935 q 444 844 450 872 q 436 810 438 817 l 536 810 q 544 800 544 810 l 544 799 q 544 796 544 797 q 543 793 543 794 l 522 694 q 508 678 518 678 l 408 678 l 268 19 q 246 0 264 0 l 143 0 q 129 6 135 0 q 126 19 124 13 l 267 678 l 167 678 q 160 685 160 678 q 161 694 160 689 l 182 793 q 194 810 186 810 l 294 810 l 332 986 z "},"‡":{"ha":390,"x_min":54,"x_max":544,"o":"m 268 19 q 246 0 264 0 l 143 0 q 130 6 136 0 q 126 17 124 11 l 126 19 l 161 178 l 61 178 q 54 188 54 178 l 54 194 l 75 293 q 89 310 79 310 l 189 310 l 267 678 l 167 678 q 160 685 160 678 l 160 688 l 160 689 q 160 691 160 690 q 161 694 161 692 l 182 793 q 194 810 186 810 l 294 810 l 332 986 q 356 1006 336 1006 l 458 1006 q 475 990 475 1006 q 469 958 475 982 q 463 930 467 944 q 457 899 460 915 q 436 810 442 821 l 536 810 q 544 800 544 810 q 543 793 544 796 l 522 694 q 508 678 519 678 l 408 678 l 331 310 l 431 310 q 439 303 439 310 q 436 293 439 297 l 415 194 q 403 178 414 178 l 303 178 l 268 19 z "},"•":{"ha":382,"x_min":133,"x_max":421,"o":"m 306 565 q 388 533 356 565 q 421 451 421 500 q 406 389 421 419 q 367 335 392 358 q 310 299 342 313 q 244 285 278 285 q 165 315 196 285 q 133 393 133 344 q 148 458 133 426 q 186 513 163 489 q 241 551 210 536 q 306 565 272 565 z "},"…":{"ha":736,"x_min":40,"x_max":724,"o":"m 656 151 q 704 132 685 151 q 724 83 724 113 q 715 47 724 64 q 691 16 706 29 q 658 -6 676 3 q 618 -14 639 -14 q 572 4 590 -14 q 554 50 554 22 q 585 121 554 90 q 656 151 615 151 m 399 151 q 447 132 428 151 q 467 83 467 113 q 458 47 467 64 q 434 16 449 29 q 401 -6 419 3 q 361 -14 382 -14 q 315 4 333 -14 q 297 50 297 22 q 328 121 297 90 q 399 151 358 151 m 142 151 q 190 132 171 151 q 210 83 210 113 q 201 47 210 64 q 177 16 192 29 q 144 -6 163 3 q 104 -14 125 -14 q 58 4 76 -14 q 40 50 40 22 q 71 121 40 90 q 142 151 101 151 z "},"‰":{"ha":1274,"x_min":101,"x_max":1369,"o":"m 1113 643 q 1122 665 1114 650 q 1136 690 1129 679 q 1261 757 1183 757 q 1342 728 1314 757 q 1368 643 1369 699 l 1251 93 q 1192 13 1232 43 q 1103 -18 1151 -18 q 1025 13 1054 -18 q 996 94 996 43 l 1113 643 m 1097 117 q 1126 83 1097 83 q 1151 92 1140 83 q 1164 117 1161 101 l 1272 625 l 1272 626 q 1274 633 1274 628 q 1249 661 1274 661 q 1222 651 1233 661 q 1206 625 1211 640 l 1097 117 m 764 643 q 773 665 765 650 q 788 690 781 679 q 913 757 835 757 q 993 728 965 757 q 1019 643 1021 699 l 903 93 q 843 13 883 43 q 754 -18 803 -18 q 676 13 706 -18 q 647 94 647 43 l 764 643 m 749 117 q 778 83 749 83 q 802 92 792 83 q 815 117 813 101 l 924 625 l 924 626 q 925 633 925 628 q 900 661 925 661 q 874 651 885 661 q 857 625 863 640 l 749 117 m 140 -200 q 142 -197 142 -199 q 435 368 289 86 q 729 939 581 650 q 742 967 736 954 q 756 992 749 981 q 775 1011 764 1011 l 860 1011 q 868 1001 868 1011 q 863 992 867 999 l 244 -208 q 221 -225 235 -225 l 144 -225 q 138 -210 138 -225 l 139 -207 q 140 -203 139 -204 l 140 -200 m 218 900 q 228 922 219 907 q 243 947 236 936 q 368 1014 290 1014 q 474 900 476 1014 l 357 350 q 297 269 338 300 q 208 239 257 239 q 131 269 160 239 q 101 351 101 300 l 218 900 m 204 374 q 233 340 204 340 q 258 349 247 340 q 271 374 268 358 l 378 882 l 378 883 q 379 890 379 885 q 354 918 379 918 q 328 908 339 918 q 311 882 317 897 l 204 374 z "},"‹":{"ha":354,"x_min":97,"x_max":447,"o":"m 139 519 q 156 533 143 531 l 435 608 q 447 597 447 610 l 433 533 q 418 517 428 518 q 413 515 415 515 q 406 513 411 515 l 394 507 q 356 492 376 500 q 321 476 336 483 q 240 442 271 454 q 188 422 210 429 q 375 331 242 397 q 378 329 376 329 q 386 318 386 326 l 386 315 l 386 313 l 374 249 q 356 238 367 236 l 108 313 q 97 325 97 314 l 97 326 l 118 424 l 139 519 z "},"›":{"ha":354,"x_min":82,"x_max":432,"o":"m 389 326 l 389 325 q 372 313 389 314 l 94 238 l 90 236 q 82 244 82 236 l 82 249 l 94 313 q 111 329 100 328 l 149 344 q 217 373 189 361 q 265 393 244 385 q 303 408 286 401 q 340 422 321 415 q 277 453 315 433 q 176 504 239 472 l 168 508 l 161 513 l 154 515 l 153 517 l 151 517 q 142 531 139 519 l 142 533 l 156 597 q 169 610 158 610 q 174 608 171 610 l 419 533 q 431 521 432 533 l 431 519 l 410 424 l 389 326 z "},"€":{"ha":718,"x_min":104,"x_max":914,"o":"m 849 849 q 806 870 825 864 q 760 876 786 876 q 644 851 703 876 q 538 778 586 825 q 494 726 510 750 q 461 663 478 703 l 751 663 l 693 539 l 406 539 l 404 533 l 401 525 q 397 510 399 517 q 394 503 396 504 l 394 497 l 389 479 l 661 479 l 603 354 l 378 354 q 388 266 375 307 q 426 194 401 225 q 483 147 450 164 q 557 131 517 129 q 701 193 635 149 l 669 43 q 572 -1 614 13 q 485 -14 529 -14 q 379 9 426 -14 q 297 74 332 32 q 244 173 263 115 q 225 301 225 231 q 226 328 225 317 q 228 354 226 340 l 104 354 l 164 479 l 246 479 l 246 483 l 249 489 l 253 504 q 254 513 253 510 q 258 526 256 517 l 263 539 l 143 539 l 204 663 l 311 663 q 340 728 325 699 q 371 784 354 758 q 408 833 388 810 q 454 881 429 857 q 751 1021 607 1021 q 826 1013 788 1021 q 914 985 864 1004 l 849 849 z "},"™":{"ha":601,"x_min":201,"x_max":779,"o":"m 554 661 l 693 1011 l 774 1011 q 779 1001 779 1011 l 675 514 q 664 504 672 504 l 610 504 l 682 847 l 550 504 l 492 504 l 496 840 l 425 504 l 372 504 q 364 514 361 504 l 468 1001 q 478 1011 471 1011 l 550 1011 l 554 661 m 275 514 q 264 504 272 504 l 213 504 q 204 514 201 504 l 296 946 l 240 946 l 253 1003 q 260 1011 254 1011 l 431 1011 q 433 1006 433 1011 l 433 1003 l 421 946 l 367 946 l 275 514 z "}}}
